<?xml version="1.0" standalone="no"?>
<!DOCTYPE svg PUBLIC "-//W3C//DTD SVG 1.1//EN" "http://www.w3.org/Graphics/SVG/1.1/DTD/svg11.dtd" >
<svg xmlns="http://www.w3.org/2000/svg" xmlns:xlink="http://www.w3.org/1999/xlink" version="1.1">
<metadata></metadata>
<defs>
<font id="mullerextrabold_demo" horiz-adv-x="763" >
<font-face units-per-em="2048" ascent="1597" descent="-451" />
<missing-glyph horiz-adv-x="425" />
<glyph horiz-adv-x="0" />
<glyph horiz-adv-x="682" />
<glyph unicode=" "  horiz-adv-x="425" />
<glyph unicode="&#x09;" horiz-adv-x="425" />
<glyph unicode="&#xa0;" horiz-adv-x="425" />
<glyph unicode="!" horiz-adv-x="602" d="M92 172q0 51 17.5 89t46 62.5t66.5 37t79 12.5q43 0 81 -12.5t66.5 -37t45 -62.5t16.5 -89q0 -53 -16.5 -91t-45 -62.5t-66.5 -37t-81 -12.5q-41 0 -79 12.5t-66.5 37t-46 62.5t-17.5 91zM117 1434h368l-20 -902h-328z" />
<glyph unicode="&#x22;" d="M145 0v1434h476v-1434h-476zM252 1176q0 -53 37 -90t96 -37q47 0 88 30.5t41 96.5t-42 95t-89 32q-47 0 -89 -30.5t-42 -96.5zM258 158h248v98q0 66 -39 95.5t-86 27.5q-47 0 -85 -28.5t-38 -94.5v-98zM258 451h248v184h-43v-137h-57v133h-44v-133h-57v137h-47v-184z M258 715h248v45h-178l108 80v8l-108 84h178v45h-248v-53l109 -80l-109 -76v-53zM297 1176q0 45 28.5 63t59.5 18q31 -4 57.5 -20t26.5 -61t-26.5 -63.5t-57.5 -18.5q-37 -2 -63.5 19.5t-24.5 62.5zM303 203v53q-2 41 23.5 57.5t54.5 20.5q29 0 55.5 -17.5t26.5 -60.5v-53 h-160z" />
<glyph unicode="#" d="M145 0v1434h476v-1434h-476zM252 1176q0 -53 37 -90t96 -37q47 0 88 30.5t41 96.5t-42 95t-89 32q-47 0 -89 -30.5t-42 -96.5zM258 158h248v98q0 66 -39 95.5t-86 27.5q-47 0 -85 -28.5t-38 -94.5v-98zM258 451h248v184h-43v-137h-57v133h-44v-133h-57v137h-47v-184z M258 715h248v45h-178l108 80v8l-108 84h178v45h-248v-53l109 -80l-109 -76v-53zM297 1176q0 45 28.5 63t59.5 18q31 -4 57.5 -20t26.5 -61t-26.5 -63.5t-57.5 -18.5q-37 -2 -63.5 19.5t-24.5 62.5zM303 203v53q-2 41 23.5 57.5t54.5 20.5q29 0 55.5 -17.5t26.5 -60.5v-53 h-160z" />
<glyph unicode="$" d="M145 0v1434h476v-1434h-476zM252 1176q0 -53 37 -90t96 -37q47 0 88 30.5t41 96.5t-42 95t-89 32q-47 0 -89 -30.5t-42 -96.5zM258 158h248v98q0 66 -39 95.5t-86 27.5q-47 0 -85 -28.5t-38 -94.5v-98zM258 451h248v184h-43v-137h-57v133h-44v-133h-57v137h-47v-184z M258 715h248v45h-178l108 80v8l-108 84h178v45h-248v-53l109 -80l-109 -76v-53zM297 1176q0 45 28.5 63t59.5 18q31 -4 57.5 -20t26.5 -61t-26.5 -63.5t-57.5 -18.5q-37 -2 -63.5 19.5t-24.5 62.5zM303 203v53q-2 41 23.5 57.5t54.5 20.5q29 0 55.5 -17.5t26.5 -60.5v-53 h-160z" />
<glyph unicode="%" d="M145 0v1434h476v-1434h-476zM252 1176q0 -53 37 -90t96 -37q47 0 88 30.5t41 96.5t-42 95t-89 32q-47 0 -89 -30.5t-42 -96.5zM258 158h248v98q0 66 -39 95.5t-86 27.5q-47 0 -85 -28.5t-38 -94.5v-98zM258 451h248v184h-43v-137h-57v133h-44v-133h-57v137h-47v-184z M258 715h248v45h-178l108 80v8l-108 84h178v45h-248v-53l109 -80l-109 -76v-53zM297 1176q0 45 28.5 63t59.5 18q31 -4 57.5 -20t26.5 -61t-26.5 -63.5t-57.5 -18.5q-37 -2 -63.5 19.5t-24.5 62.5zM303 203v53q-2 41 23.5 57.5t54.5 20.5q29 0 55.5 -17.5t26.5 -60.5v-53 h-160z" />
<glyph unicode="&#x26;" d="M145 0v1434h476v-1434h-476zM252 1176q0 -53 37 -90t96 -37q47 0 88 30.5t41 96.5t-42 95t-89 32q-47 0 -89 -30.5t-42 -96.5zM258 158h248v98q0 66 -39 95.5t-86 27.5q-47 0 -85 -28.5t-38 -94.5v-98zM258 451h248v184h-43v-137h-57v133h-44v-133h-57v137h-47v-184z M258 715h248v45h-178l108 80v8l-108 84h178v45h-248v-53l109 -80l-109 -76v-53zM297 1176q0 45 28.5 63t59.5 18q31 -4 57.5 -20t26.5 -61t-26.5 -63.5t-57.5 -18.5q-37 -2 -63.5 19.5t-24.5 62.5zM303 203v53q-2 41 23.5 57.5t54.5 20.5q29 0 55.5 -17.5t26.5 -60.5v-53 h-160z" />
<glyph unicode="'" d="M145 0v1434h476v-1434h-476zM252 1176q0 -53 37 -90t96 -37q47 0 88 30.5t41 96.5t-42 95t-89 32q-47 0 -89 -30.5t-42 -96.5zM258 158h248v98q0 66 -39 95.5t-86 27.5q-47 0 -85 -28.5t-38 -94.5v-98zM258 451h248v184h-43v-137h-57v133h-44v-133h-57v137h-47v-184z M258 715h248v45h-178l108 80v8l-108 84h178v45h-248v-53l109 -80l-109 -76v-53zM297 1176q0 45 28.5 63t59.5 18q31 -4 57.5 -20t26.5 -61t-26.5 -63.5t-57.5 -18.5q-37 -2 -63.5 19.5t-24.5 62.5zM303 203v53q-2 41 23.5 57.5t54.5 20.5q29 0 55.5 -17.5t26.5 -60.5v-53 h-160z" />
<glyph unicode="(" horiz-adv-x="681" d="M68 717q0 125 22.5 251t63.5 247.5t98 234.5t129 211h266q-51 -98 -93 -210t-72.5 -232.5t-48 -247.5t-17.5 -254t17.5 -254t48 -248t72.5 -232.5t93 -209.5h-266q-72 98 -129 210.5t-98 234.5t-63.5 248t-22.5 251z" />
<glyph unicode=")" horiz-adv-x="679" d="M33 -227q51 98 93 209.5t72.5 232.5t48 248t17.5 254t-17.5 254t-48 247.5t-72.5 232.5t-93 210h266q70 -98 128 -211t99 -234.5t63.5 -247.5t22.5 -251t-22.5 -251t-63.5 -248t-99 -234.5t-128 -210.5h-266z" />
<glyph unicode="*" d="M145 0v1434h476v-1434h-476zM252 1176q0 -53 37 -90t96 -37q47 0 88 30.5t41 96.5t-42 95t-89 32q-47 0 -89 -30.5t-42 -96.5zM258 158h248v98q0 66 -39 95.5t-86 27.5q-47 0 -85 -28.5t-38 -94.5v-98zM258 451h248v184h-43v-137h-57v133h-44v-133h-57v137h-47v-184z M258 715h248v45h-178l108 80v8l-108 84h178v45h-248v-53l109 -80l-109 -76v-53zM297 1176q0 45 28.5 63t59.5 18q31 -4 57.5 -20t26.5 -61t-26.5 -63.5t-57.5 -18.5q-37 -2 -63.5 19.5t-24.5 62.5zM303 203v53q-2 41 23.5 57.5t54.5 20.5q29 0 55.5 -17.5t26.5 -60.5v-53 h-160z" />
<glyph unicode="+" d="M145 0v1434h476v-1434h-476zM252 1176q0 -53 37 -90t96 -37q47 0 88 30.5t41 96.5t-42 95t-89 32q-47 0 -89 -30.5t-42 -96.5zM258 158h248v98q0 66 -39 95.5t-86 27.5q-47 0 -85 -28.5t-38 -94.5v-98zM258 451h248v184h-43v-137h-57v133h-44v-133h-57v137h-47v-184z M258 715h248v45h-178l108 80v8l-108 84h178v45h-248v-53l109 -80l-109 -76v-53zM297 1176q0 45 28.5 63t59.5 18q31 -4 57.5 -20t26.5 -61t-26.5 -63.5t-57.5 -18.5q-37 -2 -63.5 19.5t-24.5 62.5zM303 203v53q-2 41 23.5 57.5t54.5 20.5q29 0 55.5 -17.5t26.5 -60.5v-53 h-160z" />
<glyph unicode="," horiz-adv-x="575" d="M-2 -293l139 594h369l-225 -594h-283z" />
<glyph unicode="-" horiz-adv-x="991" d="M106 350v287h779v-287h-779z" />
<glyph unicode="." horiz-adv-x="559" d="M70 172q0 51 17 89t46 62.5t67 37t79 12.5q43 0 80.5 -12.5t66.5 -37t45 -62.5t16 -89q0 -53 -16 -91t-45 -62.5t-66.5 -37t-80.5 -12.5q-41 0 -79 12.5t-67 37t-46 62.5t-17 91z" />
<glyph unicode="/" d="M145 0v1434h476v-1434h-476zM252 1176q0 -53 37 -90t96 -37q47 0 88 30.5t41 96.5t-42 95t-89 32q-47 0 -89 -30.5t-42 -96.5zM258 158h248v98q0 66 -39 95.5t-86 27.5q-47 0 -85 -28.5t-38 -94.5v-98zM258 451h248v184h-43v-137h-57v133h-44v-133h-57v137h-47v-184z M258 715h248v45h-178l108 80v8l-108 84h178v45h-248v-53l109 -80l-109 -76v-53zM297 1176q0 45 28.5 63t59.5 18q31 -4 57.5 -20t26.5 -61t-26.5 -63.5t-57.5 -18.5q-37 -2 -63.5 19.5t-24.5 62.5zM303 203v53q-2 41 23.5 57.5t54.5 20.5q29 0 55.5 -17.5t26.5 -60.5v-53 h-160z" />
<glyph unicode="0" horiz-adv-x="1449" d="M80 696q0 150 37 282t114.5 231.5t200.5 156.5t293 57t292 -57t200.5 -156.5t115.5 -231.5t37 -282t-37 -281.5t-115.5 -231t-200.5 -157t-292 -57.5t-293 57.5t-200.5 157t-114.5 231t-37 281.5zM459 696q0 -203 64.5 -301t201.5 -98t201.5 98t64.5 301t-64.5 301.5 t-201.5 98.5t-201.5 -98.5t-64.5 -301.5z" />
<glyph unicode="1" horiz-adv-x="978" d="M102 0v317h246v701l-246 -92v338l338 129h277v-1076h217v-317h-832z" />
<glyph unicode="2" horiz-adv-x="1245" d="M78 0v166q0 125 43 216t109.5 157.5t147.5 117t154 93.5q49 29 91.5 51t75 46.5t51 53.5t18.5 70q0 63 -51 94t-131 31q-104 0 -226 -42t-237 -132v348q111 78 236.5 115.5t261.5 37.5q104 0 199 -23.5t168 -75.5t116 -134t43 -199q0 -88 -33 -159.5t-85 -130 t-118.5 -105.5t-132.5 -86q-113 -68 -189.5 -116t-76.5 -77h645v-317h-1079z" />
<glyph unicode="3" horiz-adv-x="1236" d="M94 63v349q127 -72 233.5 -94.5t217.5 -20.5q51 0 97 9t81 26.5t55.5 44t20.5 65.5q0 61 -52.5 88t-138.5 27h-237l2 317l192 -2q76 -2 127 22t51 83q0 119 -215 119q-86 0 -195.5 -33t-213.5 -102v348q94 53 214 83.5t247 30.5q111 0 206 -22.5t165.5 -70.5t110.5 -121 t40 -173q0 -111 -55.5 -185.5t-159.5 -109.5q57 -18 107 -47.5t87 -75t57.5 -103.5t20.5 -134q0 -115 -50 -193.5t-132 -127t-186.5 -70t-215.5 -21.5q-127 0 -239.5 21.5t-241.5 72.5z" />
<glyph unicode="4" horiz-adv-x="1363" d="M45 225v307l696 861h369v-861h184v-307h-184v-225h-358v225h-707zM422 532h330v408z" />
<glyph unicode="5" horiz-adv-x="1224" d="M88 63v349q82 -57 193.5 -86t214.5 -29q119 0 198.5 37t79.5 119q0 33 -14.5 61.5t-49 50t-92 33.5t-143.5 12q-66 0 -156 -11t-188 -46l49 842h912v-318l-572 2l-14 -205q76 12 149 13q106 0 197.5 -24.5t158 -79t104.5 -138.5t38 -201q0 -129 -52 -219t-139.5 -147.5 t-198 -83t-226.5 -25.5q-123 0 -239 24.5t-210 69.5z" />
<glyph unicode="6" horiz-adv-x="1353" d="M82 709q0 190 56.5 325t149.5 222t215 127t255 40q211 0 409 -88v-327q-72 49 -163 78.5t-185 29.5q-61 0 -118.5 -11t-104.5 -42t-82 -84t-51 -135q80 39 159.5 57.5t172.5 18.5q98 0 187 -29t156.5 -87.5t107.5 -144.5t40 -198q0 -123 -45 -215t-121 -153.5t-175 -92.5 t-210 -31q-178 0 -302 50.5t-201.5 145.5t-113.5 232.5t-36 311.5zM459 553q10 -88 31.5 -144.5t54.5 -88t72.5 -43t87.5 -11.5q80 0 141 42t61 134q0 47 -19.5 80t-51 52.5t-74.5 28.5t-88 9q-106 0 -215 -59z" />
<glyph unicode="7" horiz-adv-x="1191" d="M51 1077v318h1106v-256l-565 -1139h-410l535 1077h-666z" />
<glyph unicode="8" horiz-adv-x="1359" d="M76 389q0 111 61.5 199t145.5 139q-70 49 -113 120t-43 177q0 72 30.5 143.5t98.5 128t172 92t252 35.5q139 0 243.5 -35.5t173 -92t102.5 -128t34 -143.5q0 -104 -46 -174t-124 -129q94 -47 157.5 -126t63.5 -206q0 -80 -33.5 -155.5t-105.5 -134t-187.5 -94.5 t-277.5 -36q-164 0 -278.5 36t-186.5 94.5t-105.5 134t-33.5 155.5zM453 436q4 -72 62 -126t194 -54q86 0 141 34t55 91q0 66 -52 99.5t-132 64.5q-47 18 -102.5 35.5t-110.5 37.5q-31 -45 -44 -93t-11 -89zM485 1022q0 -35 16.5 -60.5t45 -45t67.5 -36t86 -30.5 q27 -8 52.5 -16.5t54.5 -16.5q35 47 51 97.5t14 91.5q-2 55 -53 93t-157 38q-86 0 -131.5 -35t-45.5 -80z" />
<glyph unicode="9" horiz-adv-x="1353" d="M68 932q0 123 45 215t120.5 153.5t175 92t209.5 30.5q178 0 302 -50t202 -145t114 -232.5t36 -311.5q0 -190 -56.5 -325.5t-149.5 -222.5t-216 -127t-254 -40q-211 0 -410 88v328q72 -49 163 -79t186 -30q61 0 118.5 11.5t104.5 42t81.5 84t51.5 135.5 q-80 -39 -160 -57.5t-172 -18.5q-98 0 -187 28.5t-157 87t-107.5 143.5t-39.5 200zM446 950q0 -47 19.5 -79.5t51.5 -53t74 -29t89 -8.5q106 0 215 60q-10 88 -31.5 144t-54.5 88t-73 43t-87 11q-80 0 -141.5 -42t-61.5 -134z" />
<glyph unicode=":" d="M145 0v1434h476v-1434h-476zM252 1176q0 -53 37 -90t96 -37q47 0 88 30.5t41 96.5t-42 95t-89 32q-47 0 -89 -30.5t-42 -96.5zM258 158h248v98q0 66 -39 95.5t-86 27.5q-47 0 -85 -28.5t-38 -94.5v-98zM258 451h248v184h-43v-137h-57v133h-44v-133h-57v137h-47v-184z M258 715h248v45h-178l108 80v8l-108 84h178v45h-248v-53l109 -80l-109 -76v-53zM297 1176q0 45 28.5 63t59.5 18q31 -4 57.5 -20t26.5 -61t-26.5 -63.5t-57.5 -18.5q-37 -2 -63.5 19.5t-24.5 62.5zM303 203v53q-2 41 23.5 57.5t54.5 20.5q29 0 55.5 -17.5t26.5 -60.5v-53 h-160z" />
<glyph unicode=";" d="M145 0v1434h476v-1434h-476zM252 1176q0 -53 37 -90t96 -37q47 0 88 30.5t41 96.5t-42 95t-89 32q-47 0 -89 -30.5t-42 -96.5zM258 158h248v98q0 66 -39 95.5t-86 27.5q-47 0 -85 -28.5t-38 -94.5v-98zM258 451h248v184h-43v-137h-57v133h-44v-133h-57v137h-47v-184z M258 715h248v45h-178l108 80v8l-108 84h178v45h-248v-53l109 -80l-109 -76v-53zM297 1176q0 45 28.5 63t59.5 18q31 -4 57.5 -20t26.5 -61t-26.5 -63.5t-57.5 -18.5q-37 -2 -63.5 19.5t-24.5 62.5zM303 203v53q-2 41 23.5 57.5t54.5 20.5q29 0 55.5 -17.5t26.5 -60.5v-53 h-160z" />
<glyph unicode="&#x3c;" d="M145 0v1434h476v-1434h-476zM252 1176q0 -53 37 -90t96 -37q47 0 88 30.5t41 96.5t-42 95t-89 32q-47 0 -89 -30.5t-42 -96.5zM258 158h248v98q0 66 -39 95.5t-86 27.5q-47 0 -85 -28.5t-38 -94.5v-98zM258 451h248v184h-43v-137h-57v133h-44v-133h-57v137h-47v-184z M258 715h248v45h-178l108 80v8l-108 84h178v45h-248v-53l109 -80l-109 -76v-53zM297 1176q0 45 28.5 63t59.5 18q31 -4 57.5 -20t26.5 -61t-26.5 -63.5t-57.5 -18.5q-37 -2 -63.5 19.5t-24.5 62.5zM303 203v53q-2 41 23.5 57.5t54.5 20.5q29 0 55.5 -17.5t26.5 -60.5v-53 h-160z" />
<glyph unicode="=" d="M145 0v1434h476v-1434h-476zM252 1176q0 -53 37 -90t96 -37q47 0 88 30.5t41 96.5t-42 95t-89 32q-47 0 -89 -30.5t-42 -96.5zM258 158h248v98q0 66 -39 95.5t-86 27.5q-47 0 -85 -28.5t-38 -94.5v-98zM258 451h248v184h-43v-137h-57v133h-44v-133h-57v137h-47v-184z M258 715h248v45h-178l108 80v8l-108 84h178v45h-248v-53l109 -80l-109 -76v-53zM297 1176q0 45 28.5 63t59.5 18q31 -4 57.5 -20t26.5 -61t-26.5 -63.5t-57.5 -18.5q-37 -2 -63.5 19.5t-24.5 62.5zM303 203v53q-2 41 23.5 57.5t54.5 20.5q29 0 55.5 -17.5t26.5 -60.5v-53 h-160z" />
<glyph unicode="&#x3e;" d="M145 0v1434h476v-1434h-476zM252 1176q0 -53 37 -90t96 -37q47 0 88 30.5t41 96.5t-42 95t-89 32q-47 0 -89 -30.5t-42 -96.5zM258 158h248v98q0 66 -39 95.5t-86 27.5q-47 0 -85 -28.5t-38 -94.5v-98zM258 451h248v184h-43v-137h-57v133h-44v-133h-57v137h-47v-184z M258 715h248v45h-178l108 80v8l-108 84h178v45h-248v-53l109 -80l-109 -76v-53zM297 1176q0 45 28.5 63t59.5 18q31 -4 57.5 -20t26.5 -61t-26.5 -63.5t-57.5 -18.5q-37 -2 -63.5 19.5t-24.5 62.5zM303 203v53q-2 41 23.5 57.5t54.5 20.5q29 0 55.5 -17.5t26.5 -60.5v-53 h-160z" />
<glyph unicode="?" horiz-adv-x="1030" d="M72 1040v328q82 41 182 68.5t215 27.5q96 0 187.5 -18.5t162 -61.5t112.5 -112.5t42 -171.5q0 -104 -54.5 -188.5t-120 -155t-119.5 -134t-54 -126.5h-328q0 94 46 169.5t102.5 137t102.5 112t46 93.5q0 74 -54.5 101.5t-133.5 27.5q-90 0 -179.5 -29t-154.5 -68z M254 172q0 51 17.5 89t46 62.5t66.5 37t79 12.5q43 0 81 -12.5t66.5 -37t45 -62.5t16.5 -89q0 -53 -16.5 -91t-45 -62.5t-66.5 -37t-81 -12.5q-41 0 -79 12.5t-66.5 37t-46 62.5t-17.5 91z" />
<glyph unicode="@" d="M145 0v1434h476v-1434h-476zM252 1176q0 -53 37 -90t96 -37q47 0 88 30.5t41 96.5t-42 95t-89 32q-47 0 -89 -30.5t-42 -96.5zM258 158h248v98q0 66 -39 95.5t-86 27.5q-47 0 -85 -28.5t-38 -94.5v-98zM258 451h248v184h-43v-137h-57v133h-44v-133h-57v137h-47v-184z M258 715h248v45h-178l108 80v8l-108 84h178v45h-248v-53l109 -80l-109 -76v-53zM297 1176q0 45 28.5 63t59.5 18q31 -4 57.5 -20t26.5 -61t-26.5 -63.5t-57.5 -18.5q-37 -2 -63.5 19.5t-24.5 62.5zM303 203v53q-2 41 23.5 57.5t54.5 20.5q29 0 55.5 -17.5t26.5 -60.5v-53 h-160z" />
<glyph unicode="A" horiz-adv-x="1540" d="M2 0l563 1434h410l563 -1434h-389l-82 225h-594l-82 -225h-389zM586 532h368l-147 414q-10 27 -18.5 57.5t-18.5 88.5q-10 -57 -18.5 -88t-18.5 -58z" />
<glyph unicode="B" horiz-adv-x="1400" d="M135 0v1434h647q236 0 369 -88.5t133 -274.5q0 -119 -54 -196.5t-159 -114.5q57 -16 106.5 -46t86 -74t57 -102.5t20.5 -131.5q0 -123 -53 -201t-137 -124t-187.5 -63.5t-205.5 -17.5h-623zM512 297h258q86 0 138.5 31.5t52.5 117.5t-52.5 118t-138.5 32h-258v-299z M514 872l234 -2q76 0 116.5 36.5t40.5 97.5t-41 97t-116 36h-234v-265z" />
<glyph unicode="C" horiz-adv-x="1341" d="M66 696q0 203 66.5 348.5t176 238.5t248.5 137t285 44q111 0 216 -22.5t199 -67.5v-358q-66 55 -158.5 86t-191.5 31q-86 0 -167 -25t-144.5 -77t-102 -135t-38.5 -200q0 -104 38.5 -179t101 -122t143.5 -69.5t165 -22.5q111 0 207 33t158 92v-369q-190 -90 -418 -90 q-147 0 -288.5 42t-251 130t-177 225t-67.5 330z" />
<glyph unicode="D" horiz-adv-x="1523" d="M135 0v1434h572q193 0 334 -53.5t233 -148.5t137 -227.5t45 -287.5q0 -158 -45 -289t-137 -226.5t-233.5 -148.5t-333.5 -53h-572zM514 328h193q172 0 266 93t94 296t-94 296t-266 93h-193v-778z" />
<glyph unicode="E" horiz-adv-x="1263" d="M135 0v1434h1032v-328h-653v-219h592v-326h-592v-233h666v-328h-1045z" />
<glyph unicode="F" horiz-adv-x="1236" d="M135 0v1434h1034v-338h-655v-248h596v-338h-596v-510h-379z" />
<glyph unicode="G" horiz-adv-x="1431" d="M66 717q0 201 67.5 342t178 231t253 132t291.5 42q117 0 229.5 -23.5t214.5 -66.5v-358q-80 55 -183 84.5t-212 29.5q-86 0 -168 -23.5t-144.5 -72.5t-100 -128t-37.5 -189q0 -133 43 -215t107.5 -128t138 -62.5t135.5 -16.5q57 0 98 10v483h358v-722 q-111 -47 -231.5 -72t-243.5 -25q-154 0 -297 44t-253.5 135.5t-177 232.5t-66.5 336z" />
<glyph unicode="H" horiz-adv-x="1560" d="M135 0v1434h379v-549h533v549h378v-1434h-378v547h-533v-547h-379z" />
<glyph unicode="I" horiz-adv-x="649" d="M135 0v1434h379v-1434h-379z" />
<glyph unicode="J" horiz-adv-x="1060" d="M31 37v348q57 -31 129.5 -49.5t144.5 -18.5q51 0 96 8.5t80 30t55.5 55t20.5 87.5v598h-358v338h737v-988q0 -133 -44 -224t-118 -147.5t-170 -81t-203 -24.5q-106 0 -204.5 21.5t-165.5 46.5z" />
<glyph unicode="K" horiz-adv-x="1445" d="M135 0v1434h379v-543h180l326 543h420l-451 -699l471 -735h-420l-348 553h-178v-553h-379z" />
<glyph unicode="L" horiz-adv-x="1196" d="M135 0v1434h379v-1096h655v-338h-1034z" />
<glyph unicode="M" horiz-adv-x="1859" d="M135 0v1434h359l436 -672l436 672h358v-1434h-378v762l-308 -471h-217l-307 473v-764h-379z" />
<glyph unicode="N" horiz-adv-x="1560" d="M135 0v1434h359l561 -824q-4 51 -6 114.5t-2 123.5v586h378v-1434h-358l-561 821q4 -51 6 -113.5t2 -121.5v-586h-379z" />
<glyph unicode="O" horiz-adv-x="1662" d="M63 717q0 150 48.5 285t144.5 238t239.5 163.5t335.5 60.5q193 0 336.5 -60.5t239.5 -163.5t144 -238.5t48 -284.5q0 -150 -48 -285t-144 -238.5t-239.5 -164t-336.5 -60.5t-336 60.5t-239 164t-144.5 238.5t-48.5 285zM453 717q0 -86 24.5 -159t71.5 -127t118.5 -84 t163.5 -30t164 30t119 84t71.5 127t24.5 159t-24.5 158.5t-71.5 127t-118.5 84t-164.5 29.5q-92 0 -163.5 -29.5t-118.5 -84t-71.5 -127t-24.5 -158.5z" />
<glyph unicode="P" horiz-adv-x="1368" d="M135 0v1434h567q133 0 247 -24t198 -81t132 -151.5t48 -235.5t-48 -235.5t-132 -150.5t-197.5 -80.5t-247.5 -24.5h-188v-451h-379zM514 778h207q43 0 82 7.5t69.5 25.5t48 50t17.5 81t-17.5 81t-48 50.5t-69.5 25.5t-82 7h-207v-328z" />
<glyph unicode="Q" horiz-adv-x="1662" d="M63 717q0 150 48.5 285t144.5 238t239.5 163.5t335.5 60.5q193 0 336.5 -60.5t239.5 -163.5t144 -238.5t48 -284.5q0 -129 -35.5 -247t-107.5 -216l143 -143l-258 -228l-155 156q-152 -70 -355 -70q-193 0 -336 60.5t-239 164t-144.5 238.5t-48.5 285zM453 717 q0 -86 24.5 -159t71.5 -127t118.5 -84t163.5 -30q18 0 37 1t35 4l-129 129l244 241l160 -160q32 85 32 179v6q0 86 -24.5 159.5t-71.5 128t-118.5 85t-164.5 30.5q-92 0 -163.5 -30.5t-118.5 -85t-71.5 -128t-24.5 -159.5z" />
<glyph unicode="R" horiz-adv-x="1456" d="M135 0v1434h604q109 0 214.5 -22.5t188.5 -78t134 -148.5t51 -235q0 -90 -20.5 -158.5t-57.5 -121t-87 -89t-109 -61.5l395 -520h-428l-342 467h-164v-467h-379zM514 774h242q82 0 132 41t50 125t-50 125t-132 41h-242v-332z" />
<glyph unicode="S" horiz-adv-x="1271" d="M84 1042q0 106 43 186.5t116.5 132.5t172 77.5t209.5 25.5q135 0 261 -30.5t220 -83.5v-349q-92 70 -209 104q-110 32 -228 32h-14q-104 -2 -143 -27t-39 -66q0 -47 55.5 -76.5t138.5 -58t179 -62.5t179 -89.5t138.5 -139t55.5 -210.5t-45.5 -212t-124 -135.5t-183 -71 t-221.5 -20.5q-156 0 -296 34t-255 97v359q129 -88 264.5 -125t257.5 -37q113 0 163 21.5t50 74.5q0 51 -55 84t-138 62.5t-179.5 63.5t-179 89.5t-138 138t-55.5 211.5z" />
<glyph unicode="T" horiz-adv-x="1241" d="M27 1096v338h1187v-338h-403v-1096h-379v1096h-405z" />
<glyph unicode="U" horiz-adv-x="1531" d="M121 547v887h379v-867q0 -145 72.5 -202.5t193.5 -57.5t193.5 57.5t72.5 202.5v867h379v-887q0 -162 -56.5 -272.5t-147.5 -178t-206.5 -97.5t-234.5 -30t-234.5 30t-207 97.5t-147.5 178t-56 272.5z" />
<glyph unicode="V" horiz-adv-x="1478" d="M6 1434h410l323 -983l324 983h410l-539 -1434h-389z" />
<glyph unicode="W" horiz-adv-x="2207" d="M12 1434h410l244 -1008l272 1008h332l272 -1008l244 1008h409l-438 -1434h-409l-244 887l-244 -887h-409z" />
<glyph unicode="X" horiz-adv-x="1421" d="M-23 0l492 745l-461 689h443l260 -422l260 422h442l-461 -689l492 -745h-443l-290 481l-291 -481h-443z" />
<glyph unicode="Y" horiz-adv-x="1490" d="M-2 1434h430l317 -592l318 592h430l-559 -945v-489h-377v489z" />
<glyph unicode="Z" horiz-adv-x="1284" d="M61 0v256l623 840h-586v338h1098v-256l-625 -840h643v-338h-1153z" />
<glyph unicode="[" d="M145 0v1434h476v-1434h-476zM252 1176q0 -53 37 -90t96 -37q47 0 88 30.5t41 96.5t-42 95t-89 32q-47 0 -89 -30.5t-42 -96.5zM258 158h248v98q0 66 -39 95.5t-86 27.5q-47 0 -85 -28.5t-38 -94.5v-98zM258 451h248v184h-43v-137h-57v133h-44v-133h-57v137h-47v-184z M258 715h248v45h-178l108 80v8l-108 84h178v45h-248v-53l109 -80l-109 -76v-53zM297 1176q0 45 28.5 63t59.5 18q31 -4 57.5 -20t26.5 -61t-26.5 -63.5t-57.5 -18.5q-37 -2 -63.5 19.5t-24.5 62.5zM303 203v53q-2 41 23.5 57.5t54.5 20.5q29 0 55.5 -17.5t26.5 -60.5v-53 h-160z" />
<glyph unicode="\" d="M145 0v1434h476v-1434h-476zM252 1176q0 -53 37 -90t96 -37q47 0 88 30.5t41 96.5t-42 95t-89 32q-47 0 -89 -30.5t-42 -96.5zM258 158h248v98q0 66 -39 95.5t-86 27.5q-47 0 -85 -28.5t-38 -94.5v-98zM258 451h248v184h-43v-137h-57v133h-44v-133h-57v137h-47v-184z M258 715h248v45h-178l108 80v8l-108 84h178v45h-248v-53l109 -80l-109 -76v-53zM297 1176q0 45 28.5 63t59.5 18q31 -4 57.5 -20t26.5 -61t-26.5 -63.5t-57.5 -18.5q-37 -2 -63.5 19.5t-24.5 62.5zM303 203v53q-2 41 23.5 57.5t54.5 20.5q29 0 55.5 -17.5t26.5 -60.5v-53 h-160z" />
<glyph unicode="]" d="M145 0v1434h476v-1434h-476zM252 1176q0 -53 37 -90t96 -37q47 0 88 30.5t41 96.5t-42 95t-89 32q-47 0 -89 -30.5t-42 -96.5zM258 158h248v98q0 66 -39 95.5t-86 27.5q-47 0 -85 -28.5t-38 -94.5v-98zM258 451h248v184h-43v-137h-57v133h-44v-133h-57v137h-47v-184z M258 715h248v45h-178l108 80v8l-108 84h178v45h-248v-53l109 -80l-109 -76v-53zM297 1176q0 45 28.5 63t59.5 18q31 -4 57.5 -20t26.5 -61t-26.5 -63.5t-57.5 -18.5q-37 -2 -63.5 19.5t-24.5 62.5zM303 203v53q-2 41 23.5 57.5t54.5 20.5q29 0 55.5 -17.5t26.5 -60.5v-53 h-160z" />
<glyph unicode="^" d="M145 0v1434h476v-1434h-476zM252 1176q0 -53 37 -90t96 -37q47 0 88 30.5t41 96.5t-42 95t-89 32q-47 0 -89 -30.5t-42 -96.5zM258 158h248v98q0 66 -39 95.5t-86 27.5q-47 0 -85 -28.5t-38 -94.5v-98zM258 451h248v184h-43v-137h-57v133h-44v-133h-57v137h-47v-184z M258 715h248v45h-178l108 80v8l-108 84h178v45h-248v-53l109 -80l-109 -76v-53zM297 1176q0 45 28.5 63t59.5 18q31 -4 57.5 -20t26.5 -61t-26.5 -63.5t-57.5 -18.5q-37 -2 -63.5 19.5t-24.5 62.5zM303 203v53q-2 41 23.5 57.5t54.5 20.5q29 0 55.5 -17.5t26.5 -60.5v-53 h-160z" />
<glyph unicode="_" d="M145 0v1434h476v-1434h-476zM252 1176q0 -53 37 -90t96 -37q47 0 88 30.5t41 96.5t-42 95t-89 32q-47 0 -89 -30.5t-42 -96.5zM258 158h248v98q0 66 -39 95.5t-86 27.5q-47 0 -85 -28.5t-38 -94.5v-98zM258 451h248v184h-43v-137h-57v133h-44v-133h-57v137h-47v-184z M258 715h248v45h-178l108 80v8l-108 84h178v45h-248v-53l109 -80l-109 -76v-53zM297 1176q0 45 28.5 63t59.5 18q31 -4 57.5 -20t26.5 -61t-26.5 -63.5t-57.5 -18.5q-37 -2 -63.5 19.5t-24.5 62.5zM303 203v53q-2 41 23.5 57.5t54.5 20.5q29 0 55.5 -17.5t26.5 -60.5v-53 h-160z" />
<glyph unicode="`" horiz-adv-x="593" d="M-217 1534v338h1024v-338h-1024zM-100 1612h63q47 0 71.5 24.5t24.5 65.5q0 37 -24.5 63.5t-71.5 26.5h-63v-180zM-70 1642v117h33q31 0 47.5 -16.5t16.5 -40.5q0 -59 -64 -60h-33zM111 1612h127v30h-95v44h95v32h-95v41h95v33h-127v-180zM289 1612h35v135l61 -80l64 82 v-137h32v180h-43l-53 -74l-53 74h-43v-180zM532 1706q0 -39 23 -67.5t70 -28.5q49 0 72.5 28.5t23.5 67.5q0 45 -27.5 70.5t-68.5 25.5q-39 0 -66 -27.5t-27 -68.5zM563 1706q0 25 15.5 45.5t46.5 20.5q33 0 48 -20.5t15 -45.5q0 -27 -14.5 -46.5t-48.5 -19.5 q-31 0 -46.5 21.5t-15.5 44.5z" />
<glyph unicode="a" horiz-adv-x="1161" d="M47 272q0 92 40 154.5t101.5 100.5t137 53.5t147.5 15.5q111 0 213 -23v35q0 53 -50 88t-155 35q-98 0 -185 -23.5t-159 -52.5v293q31 10 74 21.5t94 21.5t105.5 16.5t109.5 6.5q117 0 212 -22.5t163 -76t103.5 -141.5t35.5 -219v-274q0 -35 20.5 -48.5t47.5 -13.5 q20 0 39 6v-215q-35 -14 -81 -22t-95 -8q-164 0 -234 108q-72 -55 -154.5 -87t-187.5 -32q-72 0 -133 20.5t-108.5 59.5t-74 95.5t-26.5 127.5zM406 301q0 -39 31.5 -67.5t86.5 -28.5q43 0 82 11t80 40v133q-23 8 -56.5 13.5t-68.5 5.5q-61 0 -108 -24t-47 -83z" />
<glyph unicode="b" horiz-adv-x="1277" d="M104 0v1434h349v-531q45 47 116.5 79t175.5 32q123 0 213.5 -46t148.5 -120t86 -168t28 -188q0 -96 -28 -189.5t-86 -167.5t-148.5 -120t-213.5 -46q-133 0 -214.5 51.5t-118.5 112.5v-133h-308zM453 379q23 -47 75 -85t123 -38q55 0 95 20.5t66 54.5t38 76t12 85 t-12 84.5t-38 75.5t-65.5 54.5t-95.5 20.5q-72 0 -124 -38t-74 -85v-225z" />
<glyph unicode="c" horiz-adv-x="1003" d="M55 471q0 145 49.5 248.5t129 169t182 96.5t207.5 31q80 0 157.5 -17.5t145.5 -50.5v-297q-51 29 -118 48.5t-132 19.5q-51 0 -98.5 -12.5t-84 -39t-58 -69.5t-21.5 -106q0 -59 21.5 -101.5t56 -70t82 -41t96.5 -13.5q78 0 146.5 18.5t119.5 47.5v-297 q-74 -31 -159 -48.5t-179 -17.5q-102 0 -200.5 30t-174.5 91.5t-122 155.5t-46 225z" />
<glyph unicode="d" horiz-adv-x="1275" d="M55 492q0 94 28 188t86 168t148.5 120t212.5 46q104 0 176 -32t117 -79v531h348v-1434h-307v133q-37 -61 -118.5 -112.5t-215.5 -51.5q-123 0 -213 46t-148 120t-86 167t-28 190zM414 492q0 -43 12 -85t37.5 -76t65.5 -54.5t96 -20.5q72 0 124 38t74 85v225 q-23 47 -75 85t-123 38q-55 0 -95.5 -20.5t-66 -54.5t-37.5 -75.5t-12 -84.5z" />
<glyph unicode="e" horiz-adv-x="1122" d="M55 492q0 143 50.5 243.5t127 161.5t168 89t170.5 28q158 0 262.5 -56.5t162.5 -145.5q57 -88 69 -200q4 -35 4 -71q0 -77 -18 -154h-643q14 -41 44.5 -69.5t72.5 -47t92.5 -26.5t103.5 -8q84 0 152.5 12t130.5 35v-258q-70 -25 -159 -40.5t-206 -15.5q-121 0 -227.5 34 t-185.5 100.5t-125 164t-46 224.5zM403 596h330q4 18 0 46t-20.5 54.5t-49 46t-83.5 19.5q-72 0 -124.5 -44t-52.5 -122z" />
<glyph unicode="f" horiz-adv-x="843" d="M49 696v287h162v84q0 117 36 192.5t94 121.5t132 64.5t148 18.5q68 0 130 -11t109 -28v-286q-29 16 -68.5 27.5t-82.5 11.5q-59 0 -104.5 -28t-45.5 -97v-70h262v-287h-262v-696h-348v696h-162z" />
<glyph unicode="g" horiz-adv-x="1275" d="M55 492q0 94 28 188t86 168t148.5 120t212.5 46q133 0 215 -51.5t119 -112.5v133h307v-942q0 -147 -49 -247.5t-130 -161t-186.5 -87t-215.5 -26.5q-119 0 -226.5 24.5t-197.5 67.5v297q80 -49 178 -76t199 -27q59 0 110.5 10.5t89 35t59 65.5t21.5 104v60 q-45 -47 -116.5 -79t-176.5 -32q-123 0 -213 46t-148 120t-86 167.5t-28 189.5zM414 492q0 -43 12 -85t37.5 -76t65.5 -54.5t96 -20.5q72 0 124 38t74 85v225q-23 47 -75 85t-123 38q-55 0 -95.5 -20.5t-66 -54.5t-37.5 -75.5t-12 -84.5z" />
<glyph unicode="h" horiz-adv-x="1212" d="M104 0v1434h349v-525q55 49 121.5 77t150.5 28q100 0 175 -32t123 -87t71.5 -129t23.5 -156v-610h-348v563q0 78 -42 116t-107 38q-59 0 -102.5 -29t-65.5 -57v-631h-349z" />
<glyph unicode="i" horiz-adv-x="561" d="M82 1315q0 49 16.5 86t44 59.5t63.5 33.5t75 11q80 0 139 -45t59 -145q0 -102 -59.5 -147.5t-138.5 -45.5q-39 0 -75 11.5t-63.5 35t-44 59.5t-16.5 87zM106 0v983h349v-983h-349z" />
<glyph unicode="j" horiz-adv-x="561" d="M-113 -160q49 -16 101 -16q49 0 83.5 29.5t34.5 95.5v1034h349v-1100q0 -100 -31 -169.5t-83 -112.5t-120.5 -62.5t-144.5 -19.5q-117 0 -189 30v291zM82 1315q0 49 16.5 86t44 59.5t63.5 33.5t75 11q80 0 139 -45t59 -145q0 -102 -59.5 -147.5t-138.5 -45.5 q-39 0 -75 11.5t-63.5 35t-44 59.5t-16.5 87z" />
<glyph unicode="k" horiz-adv-x="1148" d="M104 0v1434h349v-795h77l215 344h390l-320 -483l340 -500h-387l-242 373h-73v-373h-349z" />
<glyph unicode="l" horiz-adv-x="561" d="M106 0v1495h349v-1495h-349z" />
<glyph unicode="m" horiz-adv-x="1775" d="M104 0v983h308v-104q18 23 49 47t68.5 43.5t85 32t100.5 12.5q111 0 180.5 -39t110.5 -96q59 55 137 95t176 40q111 0 181.5 -39t110.5 -97.5t55 -125t15 -121.5v-631h-348v600q0 59 -32.5 88t-79.5 29q-35 0 -73 -15.5t-71 -48.5v-22v-631h-348v600q0 59 -32.5 88 t-80.5 29q-41 0 -85 -21.5t-78 -64.5v-631h-349z" />
<glyph unicode="n" horiz-adv-x="1212" d="M104 0v983h308v-113q61 66 138 105t175 39q100 0 175 -32t123 -87t71.5 -129t23.5 -156v-610h-348v563q0 78 -42 116t-107 38q-59 0 -102.5 -29t-65.5 -57v-631h-349z" />
<glyph unicode="o" horiz-adv-x="1216" d="M55 492q0 131 45 228t121 162.5t176.5 98.5t210.5 33q111 0 211.5 -33t176 -98.5t120.5 -162.5t45 -228t-45 -228.5t-120.5 -163t-176 -98.5t-211.5 -33t-211 33t-176 98.5t-121 163t-45 228.5zM414 492q0 -41 10 -80t32.5 -69t60.5 -48.5t91 -18.5t90 18.5t60.5 48.5 t34 69t10.5 80t-10.5 79.5t-34 68.5t-60 48.5t-90.5 18.5q-53 0 -91 -18.5t-60.5 -48.5t-32.5 -69t-10 -79z" />
<glyph unicode="p" horiz-adv-x="1277" d="M104 -451v1434h308v-133q37 61 118.5 112.5t214.5 51.5q123 0 213.5 -46t148.5 -120t86 -168t28 -188q0 -96 -28 -189.5t-86 -167.5t-148.5 -120t-213.5 -46q-104 0 -175.5 32t-116.5 79v-531h-349zM453 379q23 -47 75 -85t123 -38q55 0 95 20.5t66 54.5t38 76t12 85 t-12 84.5t-38 75.5t-65.5 54.5t-95.5 20.5q-72 0 -124 -38t-74 -85v-225z" />
<glyph unicode="q" horiz-adv-x="1275" d="M55 492q0 94 28 188t86 168t148.5 120t212.5 46q133 0 215 -51.5t119 -112.5v133h307v-1434h-348v531q-45 -47 -116.5 -79t-176.5 -32q-123 0 -213 46t-148 120t-86 167.5t-28 189.5zM414 492q0 -43 12 -85t37.5 -76t65.5 -54.5t96 -20.5q72 0 124 38t74 85v225 q-23 47 -75 85t-123 38q-55 0 -95.5 -20.5t-66 -54.5t-37.5 -75.5t-12 -84.5z" />
<glyph unicode="r" horiz-adv-x="827" d="M104 0v983h308v-133q51 74 145 121q72 36 176 36q31 0 64 -3v-338q-46 10 -91 10q-56 0 -110 -16q-96 -29 -143 -101v-559h-349z" />
<glyph unicode="s" horiz-adv-x="995" d="M70 700q0 90 35.5 150.5t96 96.5t137.5 51.5t159 15.5q109 0 201 -23.5t169 -60.5v-277q-33 23 -74.5 42.5t-88 32.5t-93.5 21.5t-90 8.5q-33 0 -63.5 -9.5t-30.5 -39.5q0 -35 38 -54.5t95 -36t125 -36t125 -55t95 -93t38 -147.5q0 -92 -39 -153.5t-103.5 -97.5 t-149.5 -51.5t-177 -15.5q-117 0 -217 22.5t-178 67.5v277q82 -53 185.5 -79t191.5 -26q129 0 129 50q0 33 -38 51t-95.5 35.5t-125 38t-125 56.5t-95 93t-37.5 145z" />
<glyph unicode="t" horiz-adv-x="864" d="M27 696v287h155v277l348 81v-358h267v-287h-267v-319q0 -121 129 -121q43 0 80 5t78 20v-271q-119 -41 -266 -41q-72 0 -138.5 16.5t-117.5 55.5t-82 103.5t-31 162.5v389h-155z" />
<glyph unicode="u" horiz-adv-x="1212" d="M94 373v610h348v-563q0 -78 42 -116t108 -38q59 0 102 29t66 57v631h348v-983h-307v113q-61 -66 -138 -105t-176 -39q-102 0 -175.5 32t-122 87t-72 128t-23.5 157z" />
<glyph unicode="v" horiz-adv-x="1171" d="M12 983h369l205 -621l205 621h368l-389 -983h-369z" />
<glyph unicode="w" horiz-adv-x="1695" d="M18 983h373l139 -604l150 604h336l149 -604l140 604h372l-305 -983h-368l-156 575l-156 -575h-368z" />
<glyph unicode="x" horiz-adv-x="1130" d="M-8 0l370 489l-352 494h393l162 -258l162 258h393l-352 -494l371 -489h-394l-180 254l-180 -254h-393z" />
<glyph unicode="y" horiz-adv-x="1181" d="M0 983h369l239 -586l201 586h358l-411 -1085q-43 -111 -94.5 -183.5t-109.5 -114.5t-120.5 -59.5t-126.5 -17.5q-47 0 -92 8t-88 18v287q70 -16 133 -16q66 0 118 38t87 117z" />
<glyph unicode="z" horiz-adv-x="1007" d="M59 0v205l400 491h-371v287h830v-205l-398 -491h426v-287h-887z" />
<glyph unicode="{" d="M145 0v1434h476v-1434h-476zM252 1176q0 -53 37 -90t96 -37q47 0 88 30.5t41 96.5t-42 95t-89 32q-47 0 -89 -30.5t-42 -96.5zM258 158h248v98q0 66 -39 95.5t-86 27.5q-47 0 -85 -28.5t-38 -94.5v-98zM258 451h248v184h-43v-137h-57v133h-44v-133h-57v137h-47v-184z M258 715h248v45h-178l108 80v8l-108 84h178v45h-248v-53l109 -80l-109 -76v-53zM297 1176q0 45 28.5 63t59.5 18q31 -4 57.5 -20t26.5 -61t-26.5 -63.5t-57.5 -18.5q-37 -2 -63.5 19.5t-24.5 62.5zM303 203v53q-2 41 23.5 57.5t54.5 20.5q29 0 55.5 -17.5t26.5 -60.5v-53 h-160z" />
<glyph unicode="|" d="M145 0v1434h476v-1434h-476zM252 1176q0 -53 37 -90t96 -37q47 0 88 30.5t41 96.5t-42 95t-89 32q-47 0 -89 -30.5t-42 -96.5zM258 158h248v98q0 66 -39 95.5t-86 27.5q-47 0 -85 -28.5t-38 -94.5v-98zM258 451h248v184h-43v-137h-57v133h-44v-133h-57v137h-47v-184z M258 715h248v45h-178l108 80v8l-108 84h178v45h-248v-53l109 -80l-109 -76v-53zM297 1176q0 45 28.5 63t59.5 18q31 -4 57.5 -20t26.5 -61t-26.5 -63.5t-57.5 -18.5q-37 -2 -63.5 19.5t-24.5 62.5zM303 203v53q-2 41 23.5 57.5t54.5 20.5q29 0 55.5 -17.5t26.5 -60.5v-53 h-160z" />
<glyph unicode="}" d="M145 0v1434h476v-1434h-476zM252 1176q0 -53 37 -90t96 -37q47 0 88 30.5t41 96.5t-42 95t-89 32q-47 0 -89 -30.5t-42 -96.5zM258 158h248v98q0 66 -39 95.5t-86 27.5q-47 0 -85 -28.5t-38 -94.5v-98zM258 451h248v184h-43v-137h-57v133h-44v-133h-57v137h-47v-184z M258 715h248v45h-178l108 80v8l-108 84h178v45h-248v-53l109 -80l-109 -76v-53zM297 1176q0 45 28.5 63t59.5 18q31 -4 57.5 -20t26.5 -61t-26.5 -63.5t-57.5 -18.5q-37 -2 -63.5 19.5t-24.5 62.5zM303 203v53q-2 41 23.5 57.5t54.5 20.5q29 0 55.5 -17.5t26.5 -60.5v-53 h-160z" />
<glyph unicode="~" d="M145 0v1434h476v-1434h-476zM252 1176q0 -53 37 -90t96 -37q47 0 88 30.5t41 96.5t-42 95t-89 32q-47 0 -89 -30.5t-42 -96.5zM258 158h248v98q0 66 -39 95.5t-86 27.5q-47 0 -85 -28.5t-38 -94.5v-98zM258 451h248v184h-43v-137h-57v133h-44v-133h-57v137h-47v-184z M258 715h248v45h-178l108 80v8l-108 84h178v45h-248v-53l109 -80l-109 -76v-53zM297 1176q0 45 28.5 63t59.5 18q31 -4 57.5 -20t26.5 -61t-26.5 -63.5t-57.5 -18.5q-37 -2 -63.5 19.5t-24.5 62.5zM303 203v53q-2 41 23.5 57.5t54.5 20.5q29 0 55.5 -17.5t26.5 -60.5v-53 h-160z" />
<glyph unicode="&#xa1;" d="M145 0v1434h476v-1434h-476zM252 1176q0 -53 37 -90t96 -37q47 0 88 30.5t41 96.5t-42 95t-89 32q-47 0 -89 -30.5t-42 -96.5zM258 158h248v98q0 66 -39 95.5t-86 27.5q-47 0 -85 -28.5t-38 -94.5v-98zM258 451h248v184h-43v-137h-57v133h-44v-133h-57v137h-47v-184z M258 715h248v45h-178l108 80v8l-108 84h178v45h-248v-53l109 -80l-109 -76v-53zM297 1176q0 45 28.5 63t59.5 18q31 -4 57.5 -20t26.5 -61t-26.5 -63.5t-57.5 -18.5q-37 -2 -63.5 19.5t-24.5 62.5zM303 203v53q-2 41 23.5 57.5t54.5 20.5q29 0 55.5 -17.5t26.5 -60.5v-53 h-160z" />
<glyph unicode="&#xa2;" d="M145 0v1434h476v-1434h-476zM252 1176q0 -53 37 -90t96 -37q47 0 88 30.5t41 96.5t-42 95t-89 32q-47 0 -89 -30.5t-42 -96.5zM258 158h248v98q0 66 -39 95.5t-86 27.5q-47 0 -85 -28.5t-38 -94.5v-98zM258 451h248v184h-43v-137h-57v133h-44v-133h-57v137h-47v-184z M258 715h248v45h-178l108 80v8l-108 84h178v45h-248v-53l109 -80l-109 -76v-53zM297 1176q0 45 28.5 63t59.5 18q31 -4 57.5 -20t26.5 -61t-26.5 -63.5t-57.5 -18.5q-37 -2 -63.5 19.5t-24.5 62.5zM303 203v53q-2 41 23.5 57.5t54.5 20.5q29 0 55.5 -17.5t26.5 -60.5v-53 h-160z" />
<glyph unicode="&#xa3;" d="M145 0v1434h476v-1434h-476zM252 1176q0 -53 37 -90t96 -37q47 0 88 30.5t41 96.5t-42 95t-89 32q-47 0 -89 -30.5t-42 -96.5zM258 158h248v98q0 66 -39 95.5t-86 27.5q-47 0 -85 -28.5t-38 -94.5v-98zM258 451h248v184h-43v-137h-57v133h-44v-133h-57v137h-47v-184z M258 715h248v45h-178l108 80v8l-108 84h178v45h-248v-53l109 -80l-109 -76v-53zM297 1176q0 45 28.5 63t59.5 18q31 -4 57.5 -20t26.5 -61t-26.5 -63.5t-57.5 -18.5q-37 -2 -63.5 19.5t-24.5 62.5zM303 203v53q-2 41 23.5 57.5t54.5 20.5q29 0 55.5 -17.5t26.5 -60.5v-53 h-160z" />
<glyph unicode="&#xa4;" horiz-adv-x="759" d="M145 0v1434h476v-1434h-476zM252 1176q0 -53 37 -90t96 -37q47 0 88 30.5t41 96.5t-42 95t-89 32q-47 0 -89 -30.5t-42 -96.5zM258 158h248v98q0 66 -39 95.5t-86 27.5q-47 0 -85 -28.5t-38 -94.5v-98zM258 451h248v184h-43v-137h-57v133h-44v-133h-57v137h-47v-184z M258 715h248v45h-178l108 80v8l-108 84h178v45h-248v-53l109 -80l-109 -76v-53zM297 1176q0 45 28.5 63t59.5 18q31 -4 57.5 -20t26.5 -61t-26.5 -63.5t-57.5 -18.5q-37 -2 -63.5 19.5t-24.5 62.5zM303 203v53q-2 41 23.5 57.5t54.5 20.5q29 0 55.5 -17.5t26.5 -60.5v-53 h-160z" />
<glyph unicode="&#xa5;" horiz-adv-x="768" d="M145 0v1434h476v-1434h-476zM252 1176q0 -53 37 -90t96 -37q47 0 88 30.5t41 96.5t-42 95t-89 32q-47 0 -89 -30.5t-42 -96.5zM258 158h248v98q0 66 -39 95.5t-86 27.5q-47 0 -85 -28.5t-38 -94.5v-98zM258 451h248v184h-43v-137h-57v133h-44v-133h-57v137h-47v-184z M258 715h248v45h-178l108 80v8l-108 84h178v45h-248v-53l109 -80l-109 -76v-53zM297 1176q0 45 28.5 63t59.5 18q31 -4 57.5 -20t26.5 -61t-26.5 -63.5t-57.5 -18.5q-37 -2 -63.5 19.5t-24.5 62.5zM303 203v53q-2 41 23.5 57.5t54.5 20.5q29 0 55.5 -17.5t26.5 -60.5v-53 h-160z" />
<glyph unicode="&#xa6;" d="M145 0v1434h476v-1434h-476zM252 1176q0 -53 37 -90t96 -37q47 0 88 30.5t41 96.5t-42 95t-89 32q-47 0 -89 -30.5t-42 -96.5zM258 158h248v98q0 66 -39 95.5t-86 27.5q-47 0 -85 -28.5t-38 -94.5v-98zM258 451h248v184h-43v-137h-57v133h-44v-133h-57v137h-47v-184z M258 715h248v45h-178l108 80v8l-108 84h178v45h-248v-53l109 -80l-109 -76v-53zM297 1176q0 45 28.5 63t59.5 18q31 -4 57.5 -20t26.5 -61t-26.5 -63.5t-57.5 -18.5q-37 -2 -63.5 19.5t-24.5 62.5zM303 203v53q-2 41 23.5 57.5t54.5 20.5q29 0 55.5 -17.5t26.5 -60.5v-53 h-160z" />
<glyph unicode="&#xa7;" horiz-adv-x="768" d="M145 0v1434h476v-1434h-476zM252 1176q0 -53 37 -90t96 -37q47 0 88 30.5t41 96.5t-42 95t-89 32q-47 0 -89 -30.5t-42 -96.5zM258 158h248v98q0 66 -39 95.5t-86 27.5q-47 0 -85 -28.5t-38 -94.5v-98zM258 451h248v184h-43v-137h-57v133h-44v-133h-57v137h-47v-184z M258 715h248v45h-178l108 80v8l-108 84h178v45h-248v-53l109 -80l-109 -76v-53zM297 1176q0 45 28.5 63t59.5 18q31 -4 57.5 -20t26.5 -61t-26.5 -63.5t-57.5 -18.5q-37 -2 -63.5 19.5t-24.5 62.5zM303 203v53q-2 41 23.5 57.5t54.5 20.5q29 0 55.5 -17.5t26.5 -60.5v-53 h-160z" />
<glyph unicode="&#xa8;" horiz-adv-x="757" d="M-125 1534v338h1024v-338h-1024zM-8 1612h63q47 0 72 24.5t25 65.5q0 37 -25 63.5t-72 26.5h-63v-180zM23 1642v117h32q31 0 47.5 -16.5t16.5 -40.5q0 -59 -64 -60h-32zM203 1612h127v30h-94v44h94v32h-94v41h94v33h-127v-180zM381 1612h35v135l61 -80l64 82v-137h32v180 h-43l-53 -74l-53 74h-43v-180zM625 1706q0 -39 22.5 -67.5t69.5 -28.5q49 0 72.5 28.5t23.5 67.5q0 45 -27.5 70.5t-68.5 25.5q-39 0 -65.5 -27.5t-26.5 -68.5zM655 1706q0 25 15.5 45.5t46.5 20.5q33 0 48 -20.5t15 -45.5q0 -27 -14 -46.5t-49 -19.5q-31 0 -46.5 21.5 t-15.5 44.5z" />
<glyph unicode="&#xa9;" horiz-adv-x="768" d="M145 0v1434h476v-1434h-476zM252 1176q0 -53 37 -90t96 -37q47 0 88 30.5t41 96.5t-42 95t-89 32q-47 0 -89 -30.5t-42 -96.5zM258 158h248v98q0 66 -39 95.5t-86 27.5q-47 0 -85 -28.5t-38 -94.5v-98zM258 451h248v184h-43v-137h-57v133h-44v-133h-57v137h-47v-184z M258 715h248v45h-178l108 80v8l-108 84h178v45h-248v-53l109 -80l-109 -76v-53zM297 1176q0 45 28.5 63t59.5 18q31 -4 57.5 -20t26.5 -61t-26.5 -63.5t-57.5 -18.5q-37 -2 -63.5 19.5t-24.5 62.5zM303 203v53q-2 41 23.5 57.5t54.5 20.5q29 0 55.5 -17.5t26.5 -60.5v-53 h-160z" />
<glyph unicode="&#xab;" d="M145 0v1434h476v-1434h-476zM252 1176q0 -53 37 -90t96 -37q47 0 88 30.5t41 96.5t-42 95t-89 32q-47 0 -89 -30.5t-42 -96.5zM258 158h248v98q0 66 -39 95.5t-86 27.5q-47 0 -85 -28.5t-38 -94.5v-98zM258 451h248v184h-43v-137h-57v133h-44v-133h-57v137h-47v-184z M258 715h248v45h-178l108 80v8l-108 84h178v45h-248v-53l109 -80l-109 -76v-53zM297 1176q0 45 28.5 63t59.5 18q31 -4 57.5 -20t26.5 -61t-26.5 -63.5t-57.5 -18.5q-37 -2 -63.5 19.5t-24.5 62.5zM303 203v53q-2 41 23.5 57.5t54.5 20.5q29 0 55.5 -17.5t26.5 -60.5v-53 h-160z" />
<glyph unicode="&#xac;" horiz-adv-x="772" d="M145 0v1434h476v-1434h-476zM252 1176q0 -53 37 -90t96 -37q47 0 88 30.5t41 96.5t-42 95t-89 32q-47 0 -89 -30.5t-42 -96.5zM258 158h248v98q0 66 -39 95.5t-86 27.5q-47 0 -85 -28.5t-38 -94.5v-98zM258 451h248v184h-43v-137h-57v133h-44v-133h-57v137h-47v-184z M258 715h248v45h-178l108 80v8l-108 84h178v45h-248v-53l109 -80l-109 -76v-53zM297 1176q0 45 28.5 63t59.5 18q31 -4 57.5 -20t26.5 -61t-26.5 -63.5t-57.5 -18.5q-37 -2 -63.5 19.5t-24.5 62.5zM303 203v53q-2 41 23.5 57.5t54.5 20.5q29 0 55.5 -17.5t26.5 -60.5v-53 h-160z" />
<glyph unicode="&#xad;" horiz-adv-x="991" d="M106 350v287h779v-287h-779z" />
<glyph unicode="&#xae;" d="M145 0v1434h476v-1434h-476zM252 1176q0 -53 37 -90t96 -37q47 0 88 30.5t41 96.5t-42 95t-89 32q-47 0 -89 -30.5t-42 -96.5zM258 158h248v98q0 66 -39 95.5t-86 27.5q-47 0 -85 -28.5t-38 -94.5v-98zM258 451h248v184h-43v-137h-57v133h-44v-133h-57v137h-47v-184z M258 715h248v45h-178l108 80v8l-108 84h178v45h-248v-53l109 -80l-109 -76v-53zM297 1176q0 45 28.5 63t59.5 18q31 -4 57.5 -20t26.5 -61t-26.5 -63.5t-57.5 -18.5q-37 -2 -63.5 19.5t-24.5 62.5zM303 203v53q-2 41 23.5 57.5t54.5 20.5q29 0 55.5 -17.5t26.5 -60.5v-53 h-160z" />
<glyph unicode="&#xaf;" horiz-adv-x="737" d="M-125 1534v338h1024v-338h-1024zM-8 1612h63q47 0 72 24.5t25 65.5q0 37 -25 63.5t-72 26.5h-63v-180zM23 1642v117h32q31 0 47.5 -16.5t16.5 -40.5q0 -59 -64 -60h-32zM203 1612h127v30h-94v44h94v32h-94v41h94v33h-127v-180zM381 1612h35v135l61 -80l64 82v-137h32v180 h-43l-53 -74l-53 74h-43v-180zM625 1706q0 -39 22.5 -67.5t69.5 -28.5q49 0 72.5 28.5t23.5 67.5q0 45 -27.5 70.5t-68.5 25.5q-39 0 -65.5 -27.5t-26.5 -68.5zM655 1706q0 25 15.5 45.5t46.5 20.5q33 0 48 -20.5t15 -45.5q0 -27 -14 -46.5t-49 -19.5q-31 0 -46.5 21.5 t-15.5 44.5z" />
<glyph unicode="&#xb0;" horiz-adv-x="880" d="M-86 1534v338h1024v-338h-1024zM31 1612h63q47 0 71.5 24.5t24.5 65.5q0 37 -24.5 63.5t-71.5 26.5h-63v-180zM61 1642v117h33q31 0 47.5 -16.5t16.5 -40.5q0 -59 -64 -60h-33zM242 1612h127v30h-95v44h95v32h-95v41h95v33h-127v-180zM420 1612h35v135l61 -80l64 82v-137 h32v180h-43l-53 -74l-53 74h-43v-180zM664 1706q0 -39 22.5 -67.5t69.5 -28.5q49 0 72.5 28.5t23.5 67.5q0 45 -27.5 70.5t-68.5 25.5q-39 0 -65.5 -27.5t-26.5 -68.5zM694 1706q0 25 15.5 45.5t46.5 20.5q33 0 48 -20.5t15 -45.5q0 -27 -14 -46.5t-49 -19.5 q-31 0 -46.5 21.5t-15.5 44.5z" />
<glyph unicode="&#xb1;" d="M145 0v1434h476v-1434h-476zM252 1176q0 -53 37 -90t96 -37q47 0 88 30.5t41 96.5t-42 95t-89 32q-47 0 -89 -30.5t-42 -96.5zM258 158h248v98q0 66 -39 95.5t-86 27.5q-47 0 -85 -28.5t-38 -94.5v-98zM258 451h248v184h-43v-137h-57v133h-44v-133h-57v137h-47v-184z M258 715h248v45h-178l108 80v8l-108 84h178v45h-248v-53l109 -80l-109 -76v-53zM297 1176q0 45 28.5 63t59.5 18q31 -4 57.5 -20t26.5 -61t-26.5 -63.5t-57.5 -18.5q-37 -2 -63.5 19.5t-24.5 62.5zM303 203v53q-2 41 23.5 57.5t54.5 20.5q29 0 55.5 -17.5t26.5 -60.5v-53 h-160z" />
<glyph unicode="&#xb2;" horiz-adv-x="768" d="M145 0v1434h476v-1434h-476zM252 1176q0 -53 37 -90t96 -37q47 0 88 30.5t41 96.5t-42 95t-89 32q-47 0 -89 -30.5t-42 -96.5zM258 158h248v98q0 66 -39 95.5t-86 27.5q-47 0 -85 -28.5t-38 -94.5v-98zM258 451h248v184h-43v-137h-57v133h-44v-133h-57v137h-47v-184z M258 715h248v45h-178l108 80v8l-108 84h178v45h-248v-53l109 -80l-109 -76v-53zM297 1176q0 45 28.5 63t59.5 18q31 -4 57.5 -20t26.5 -61t-26.5 -63.5t-57.5 -18.5q-37 -2 -63.5 19.5t-24.5 62.5zM303 203v53q-2 41 23.5 57.5t54.5 20.5q29 0 55.5 -17.5t26.5 -60.5v-53 h-160z" />
<glyph unicode="&#xb3;" horiz-adv-x="768" d="M145 0v1434h476v-1434h-476zM252 1176q0 -53 37 -90t96 -37q47 0 88 30.5t41 96.5t-42 95t-89 32q-47 0 -89 -30.5t-42 -96.5zM258 158h248v98q0 66 -39 95.5t-86 27.5q-47 0 -85 -28.5t-38 -94.5v-98zM258 451h248v184h-43v-137h-57v133h-44v-133h-57v137h-47v-184z M258 715h248v45h-178l108 80v8l-108 84h178v45h-248v-53l109 -80l-109 -76v-53zM297 1176q0 45 28.5 63t59.5 18q31 -4 57.5 -20t26.5 -61t-26.5 -63.5t-57.5 -18.5q-37 -2 -63.5 19.5t-24.5 62.5zM303 203v53q-2 41 23.5 57.5t54.5 20.5q29 0 55.5 -17.5t26.5 -60.5v-53 h-160z" />
<glyph unicode="&#xb4;" horiz-adv-x="552" d="M-274 1534v338h1024v-338h-1024zM-158 1612h64q47 0 71.5 24.5t24.5 65.5q0 37 -24.5 63.5t-71.5 26.5h-64v-180zM-127 1642v117h33q31 0 47 -16.5t16 -40.5q0 -59 -63 -60h-33zM53 1612h127v30h-94v44h94v32h-94v41h94v33h-127v-180zM231 1612h35v135l62 -80l63 82v-137 h33v180h-43l-53 -74l-54 74h-43v-180zM475 1706q0 -39 22.5 -67.5t69.5 -28.5q49 0 73 28.5t24 67.5q0 45 -28 70.5t-69 25.5q-39 0 -65.5 -27.5t-26.5 -68.5zM506 1706q0 25 15.5 45.5t45.5 20.5q33 0 48.5 -20.5t15.5 -45.5q0 -27 -14.5 -46.5t-49.5 -19.5q-31 0 -46 21.5 t-15 44.5z" />
<glyph unicode="&#xb6;" horiz-adv-x="768" d="M145 0v1434h476v-1434h-476zM252 1176q0 -53 37 -90t96 -37q47 0 88 30.5t41 96.5t-42 95t-89 32q-47 0 -89 -30.5t-42 -96.5zM258 158h248v98q0 66 -39 95.5t-86 27.5q-47 0 -85 -28.5t-38 -94.5v-98zM258 451h248v184h-43v-137h-57v133h-44v-133h-57v137h-47v-184z M258 715h248v45h-178l108 80v8l-108 84h178v45h-248v-53l109 -80l-109 -76v-53zM297 1176q0 45 28.5 63t59.5 18q31 -4 57.5 -20t26.5 -61t-26.5 -63.5t-57.5 -18.5q-37 -2 -63.5 19.5t-24.5 62.5zM303 203v53q-2 41 23.5 57.5t54.5 20.5q29 0 55.5 -17.5t26.5 -60.5v-53 h-160z" />
<glyph unicode="&#xb7;" horiz-adv-x="768" d="M145 0v1434h476v-1434h-476zM252 1176q0 -53 37 -90t96 -37q47 0 88 30.5t41 96.5t-42 95t-89 32q-47 0 -89 -30.5t-42 -96.5zM258 158h248v98q0 66 -39 95.5t-86 27.5q-47 0 -85 -28.5t-38 -94.5v-98zM258 451h248v184h-43v-137h-57v133h-44v-133h-57v137h-47v-184z M258 715h248v45h-178l108 80v8l-108 84h178v45h-248v-53l109 -80l-109 -76v-53zM297 1176q0 45 28.5 63t59.5 18q31 -4 57.5 -20t26.5 -61t-26.5 -63.5t-57.5 -18.5q-37 -2 -63.5 19.5t-24.5 62.5zM303 203v53q-2 41 23.5 57.5t54.5 20.5q29 0 55.5 -17.5t26.5 -60.5v-53 h-160z" />
<glyph unicode="&#xb8;" horiz-adv-x="460" d="M-301 -55h1024v-338h-1024v338zM-184 -135v-180h63q47 0 71.5 24.5t24.5 65.5q0 37 -24.5 63.5t-71.5 26.5h-63zM-154 -168h33q31 0 47.5 -16.5t16.5 -40.5q0 -59 -64 -60h-33v117zM27 -135v-180h127v30h-95v43h95v33h-95v41h95v33h-127zM205 -135v-180h35v135l61 -80 l64 82v-137h32v180h-43l-53 -74l-53 74h-43zM449 -221q0 -39 22.5 -67.5t69.5 -28.5q49 0 72.5 28.5t23.5 67.5q0 45 -27.5 70.5t-68.5 25.5q-39 0 -65.5 -27.5t-26.5 -68.5zM479 -221q0 25 15.5 45t46.5 20q33 0 48 -20.5t15 -44.5q0 -27 -14.5 -46.5t-48.5 -19.5 q-31 0 -46.5 21.5t-15.5 44.5z" />
<glyph unicode="&#xb9;" horiz-adv-x="768" d="M145 0v1434h476v-1434h-476zM252 1176q0 -53 37 -90t96 -37q47 0 88 30.5t41 96.5t-42 95t-89 32q-47 0 -89 -30.5t-42 -96.5zM258 158h248v98q0 66 -39 95.5t-86 27.5q-47 0 -85 -28.5t-38 -94.5v-98zM258 451h248v184h-43v-137h-57v133h-44v-133h-57v137h-47v-184z M258 715h248v45h-178l108 80v8l-108 84h178v45h-248v-53l109 -80l-109 -76v-53zM297 1176q0 45 28.5 63t59.5 18q31 -4 57.5 -20t26.5 -61t-26.5 -63.5t-57.5 -18.5q-37 -2 -63.5 19.5t-24.5 62.5zM303 203v53q-2 41 23.5 57.5t54.5 20.5q29 0 55.5 -17.5t26.5 -60.5v-53 h-160z" />
<glyph unicode="&#xbb;" horiz-adv-x="768" d="M145 0v1434h476v-1434h-476zM252 1176q0 -53 37 -90t96 -37q47 0 88 30.5t41 96.5t-42 95t-89 32q-47 0 -89 -30.5t-42 -96.5zM258 158h248v98q0 66 -39 95.5t-86 27.5q-47 0 -85 -28.5t-38 -94.5v-98zM258 451h248v184h-43v-137h-57v133h-44v-133h-57v137h-47v-184z M258 715h248v45h-178l108 80v8l-108 84h178v45h-248v-53l109 -80l-109 -76v-53zM297 1176q0 45 28.5 63t59.5 18q31 -4 57.5 -20t26.5 -61t-26.5 -63.5t-57.5 -18.5q-37 -2 -63.5 19.5t-24.5 62.5zM303 203v53q-2 41 23.5 57.5t54.5 20.5q29 0 55.5 -17.5t26.5 -60.5v-53 h-160z" />
<glyph unicode="&#xbc;" horiz-adv-x="768" d="M145 0v1434h476v-1434h-476zM252 1176q0 -53 37 -90t96 -37q47 0 88 30.5t41 96.5t-42 95t-89 32q-47 0 -89 -30.5t-42 -96.5zM258 158h248v98q0 66 -39 95.5t-86 27.5q-47 0 -85 -28.5t-38 -94.5v-98zM258 451h248v184h-43v-137h-57v133h-44v-133h-57v137h-47v-184z M258 715h248v45h-178l108 80v8l-108 84h178v45h-248v-53l109 -80l-109 -76v-53zM297 1176q0 45 28.5 63t59.5 18q31 -4 57.5 -20t26.5 -61t-26.5 -63.5t-57.5 -18.5q-37 -2 -63.5 19.5t-24.5 62.5zM303 203v53q-2 41 23.5 57.5t54.5 20.5q29 0 55.5 -17.5t26.5 -60.5v-53 h-160z" />
<glyph unicode="&#xbd;" horiz-adv-x="768" d="M145 0v1434h476v-1434h-476zM252 1176q0 -53 37 -90t96 -37q47 0 88 30.5t41 96.5t-42 95t-89 32q-47 0 -89 -30.5t-42 -96.5zM258 158h248v98q0 66 -39 95.5t-86 27.5q-47 0 -85 -28.5t-38 -94.5v-98zM258 451h248v184h-43v-137h-57v133h-44v-133h-57v137h-47v-184z M258 715h248v45h-178l108 80v8l-108 84h178v45h-248v-53l109 -80l-109 -76v-53zM297 1176q0 45 28.5 63t59.5 18q31 -4 57.5 -20t26.5 -61t-26.5 -63.5t-57.5 -18.5q-37 -2 -63.5 19.5t-24.5 62.5zM303 203v53q-2 41 23.5 57.5t54.5 20.5q29 0 55.5 -17.5t26.5 -60.5v-53 h-160z" />
<glyph unicode="&#xbe;" horiz-adv-x="768" d="M145 0v1434h476v-1434h-476zM252 1176q0 -53 37 -90t96 -37q47 0 88 30.5t41 96.5t-42 95t-89 32q-47 0 -89 -30.5t-42 -96.5zM258 158h248v98q0 66 -39 95.5t-86 27.5q-47 0 -85 -28.5t-38 -94.5v-98zM258 451h248v184h-43v-137h-57v133h-44v-133h-57v137h-47v-184z M258 715h248v45h-178l108 80v8l-108 84h178v45h-248v-53l109 -80l-109 -76v-53zM297 1176q0 45 28.5 63t59.5 18q31 -4 57.5 -20t26.5 -61t-26.5 -63.5t-57.5 -18.5q-37 -2 -63.5 19.5t-24.5 62.5zM303 203v53q-2 41 23.5 57.5t54.5 20.5q29 0 55.5 -17.5t26.5 -60.5v-53 h-160z" />
<glyph unicode="&#xbf;" horiz-adv-x="768" d="M145 0v1434h476v-1434h-476zM252 1176q0 -53 37 -90t96 -37q47 0 88 30.5t41 96.5t-42 95t-89 32q-47 0 -89 -30.5t-42 -96.5zM258 158h248v98q0 66 -39 95.5t-86 27.5q-47 0 -85 -28.5t-38 -94.5v-98zM258 451h248v184h-43v-137h-57v133h-44v-133h-57v137h-47v-184z M258 715h248v45h-178l108 80v8l-108 84h178v45h-248v-53l109 -80l-109 -76v-53zM297 1176q0 45 28.5 63t59.5 18q31 -4 57.5 -20t26.5 -61t-26.5 -63.5t-57.5 -18.5q-37 -2 -63.5 19.5t-24.5 62.5zM303 203v53q-2 41 23.5 57.5t54.5 20.5q29 0 55.5 -17.5t26.5 -60.5v-53 h-160z" />
<glyph unicode="&#xc0;" horiz-adv-x="1540" d="M2 0l563 1434h410l563 -1434h-389l-82 225h-594l-82 -225h-389zM184 1534v338h1024v-338h-1024zM301 1612h63q47 0 71.5 24.5t24.5 65.5q0 37 -24.5 63.5t-71.5 26.5h-63v-180zM331 1642v117h33q31 0 47.5 -16.5t16.5 -40.5q0 -59 -64 -60h-33zM512 1612h127v30h-95v44 h95v32h-95v41h95v33h-127v-180zM586 532h368l-147 414q-10 27 -18.5 57.5t-18.5 88.5q-10 -57 -18.5 -88t-18.5 -58zM690 1612h35v135l61 -80l64 82v-137h32v180h-43l-53 -74l-53 74h-43v-180zM933 1706q0 -39 23 -67.5t70 -28.5q49 0 72.5 28.5t23.5 67.5q0 45 -27.5 70.5 t-68.5 25.5q-39 0 -66 -27.5t-27 -68.5zM964 1706q0 25 15.5 45.5t46.5 20.5q33 0 48 -20.5t15 -45.5q0 -27 -14.5 -46.5t-48.5 -19.5q-31 0 -46.5 21.5t-15.5 44.5z" />
<glyph unicode="&#xc1;" horiz-adv-x="1540" d="M2 0l563 1434h410l563 -1434h-389l-82 225h-594l-82 -225h-389zM291 1534v338h1024v-338h-1024zM407 1612h64q47 0 71.5 24.5t24.5 65.5q0 37 -24.5 63.5t-71.5 26.5h-64v-180zM438 1642v117h33q31 0 47 -16.5t16 -40.5q0 -59 -63 -60h-33zM586 532h368l-147 414 q-10 27 -18.5 57.5t-18.5 88.5q-10 -57 -18.5 -88t-18.5 -58zM618 1612h127v30h-94v44h94v32h-94v41h94v33h-127v-180zM796 1612h35v135l62 -80l63 82v-137h33v180h-43l-53 -74l-54 74h-43v-180zM1040 1706q0 -39 22.5 -67.5t69.5 -28.5q49 0 73 28.5t24 67.5q0 45 -28 70.5 t-69 25.5q-39 0 -65.5 -27.5t-26.5 -68.5zM1071 1706q0 25 15.5 45.5t45.5 20.5q33 0 48.5 -20.5t15.5 -45.5q0 -27 -14.5 -46.5t-49.5 -19.5q-31 0 -46 21.5t-15 44.5z" />
<glyph unicode="&#xc2;" horiz-adv-x="1540" d="M2 0l563 1434h410l563 -1434h-389l-82 225h-594l-82 -225h-389zM252 1534v338h1024v-338h-1024zM369 1612h63q47 0 72 24.5t25 65.5q0 37 -24.5 63.5t-72.5 26.5h-63v-180zM400 1642v117h32q31 0 47.5 -16.5t16.5 -40.5q0 -59 -64 -60h-32zM580 1612h127v30h-94v44h94v32 h-94v41h94v33h-127v-180zM586 532h368l-147 414q-10 27 -18.5 57.5t-18.5 88.5q-10 -57 -18.5 -88t-18.5 -58zM758 1612h35v135l61 -80l64 82v-137h33v180h-43l-54 -74l-53 74h-43v-180zM1002 1706q0 -39 22.5 -67.5t69.5 -28.5q49 0 72.5 28.5t23.5 67.5q0 45 -27.5 70.5 t-68.5 25.5q-39 0 -65.5 -27.5t-26.5 -68.5zM1033 1706q0 25 15 45.5t46 20.5q33 0 48 -20.5t15 -45.5q0 -27 -14 -46.5t-49 -19.5q-31 0 -46 21.5t-15 44.5z" />
<glyph unicode="&#xc3;" horiz-adv-x="1540" d="M2 0l563 1434h410l563 -1434h-389l-82 225h-594l-82 -225h-389zM246 1534v338h1024v-338h-1024zM363 1612h63q47 0 72 24.5t25 65.5q0 37 -25 63.5t-72 26.5h-63v-180zM394 1642v117h32q31 0 47.5 -16.5t16.5 -40.5q0 -59 -64 -60h-32zM574 1612h127v30h-94v44h94v32h-94 v41h94v33h-127v-180zM586 532h368l-147 414q-10 27 -18.5 57.5t-18.5 88.5q-10 -57 -18.5 -88t-18.5 -58zM752 1612h35v135l61 -80l64 82v-137h32v180h-43l-53 -74l-53 74h-43v-180zM996 1706q0 -39 22.5 -67.5t69.5 -28.5q49 0 72.5 28.5t23.5 67.5q0 45 -27.5 70.5 t-68.5 25.5q-39 0 -65.5 -27.5t-26.5 -68.5zM1026 1706q0 25 15.5 45.5t46.5 20.5q33 0 48 -20.5t15 -45.5q0 -27 -14 -46.5t-49 -19.5q-31 0 -46.5 21.5t-15.5 44.5z" />
<glyph unicode="&#xc4;" horiz-adv-x="1540" d="M2 0l563 1434h410l563 -1434h-389l-82 225h-594l-82 -225h-389zM266 1534v338h1024v-338h-1024zM383 1612h63q47 0 72 24.5t25 65.5q0 37 -25 63.5t-72 26.5h-63v-180zM414 1642v117h32q31 0 47.5 -16.5t16.5 -40.5q0 -59 -64 -60h-32zM586 532h368l-147 414 q-10 27 -18.5 57.5t-18.5 88.5q-10 -57 -18.5 -88t-18.5 -58zM594 1612h127v30h-94v44h94v32h-94v41h94v33h-127v-180zM772 1612h35v135l61 -80l64 82v-137h32v180h-43l-53 -74l-53 74h-43v-180zM1016 1706q0 -39 22.5 -67.5t69.5 -28.5q49 0 72.5 28.5t23.5 67.5 q0 45 -27.5 70.5t-68.5 25.5q-39 0 -65.5 -27.5t-26.5 -68.5zM1046 1706q0 25 15.5 45.5t46.5 20.5q33 0 48 -20.5t15 -45.5q0 -27 -14 -46.5t-49 -19.5q-31 0 -46.5 21.5t-15.5 44.5z" />
<glyph unicode="&#xc5;" horiz-adv-x="1540" d="M2 0l563 1434h410l563 -1434h-389l-82 225h-594l-82 -225h-389zM287 1534v338h1024v-338h-1024zM404 1612h63q47 0 71.5 24.5t24.5 65.5q0 37 -24.5 63.5t-71.5 26.5h-63v-180zM434 1642v117h33q31 0 47.5 -16.5t16.5 -40.5q0 -59 -64 -60h-33zM586 532h368l-147 414 q-10 27 -18.5 57.5t-18.5 88.5q-10 -57 -18.5 -88t-18.5 -58zM615 1612h127v30h-95v44h95v32h-95v41h95v33h-127v-180zM793 1612h35v135l61 -80l64 82v-137h32v180h-43l-53 -74l-53 74h-43v-180zM1036 1706q0 -39 23 -67.5t70 -28.5q49 0 72.5 28.5t23.5 67.5 q0 45 -27.5 70.5t-68.5 25.5q-39 0 -66 -27.5t-27 -68.5zM1067 1706q0 25 15.5 45.5t46.5 20.5q33 0 48 -20.5t15 -45.5q0 -27 -14.5 -46.5t-48.5 -19.5q-31 0 -46.5 21.5t-15.5 44.5z" />
<glyph unicode="&#xc6;" d="M145 0v1434h476v-1434h-476zM252 1176q0 -53 37 -90t96 -37q47 0 88 30.5t41 96.5t-42 95t-89 32q-47 0 -89 -30.5t-42 -96.5zM258 158h248v98q0 66 -39 95.5t-86 27.5q-47 0 -85 -28.5t-38 -94.5v-98zM258 451h248v184h-43v-137h-57v133h-44v-133h-57v137h-47v-184z M258 715h248v45h-178l108 80v8l-108 84h178v45h-248v-53l109 -80l-109 -76v-53zM297 1176q0 45 28.5 63t59.5 18q31 -4 57.5 -20t26.5 -61t-26.5 -63.5t-57.5 -18.5q-37 -2 -63.5 19.5t-24.5 62.5zM303 203v53q-2 41 23.5 57.5t54.5 20.5q29 0 55.5 -17.5t26.5 -60.5v-53 h-160z" />
<glyph unicode="&#xc7;" horiz-adv-x="1341" d="M66 696q0 203 66.5 348.5t176 238.5t248.5 137t285 44q111 0 216 -22.5t199 -67.5v-358q-66 55 -158.5 86t-191.5 31q-86 0 -167 -25t-144.5 -77t-102 -135t-38.5 -200q0 -104 38.5 -179t101 -122t143.5 -69.5t165 -22.5q111 0 207 33t158 92v-369q-190 -90 -418 -90 q-147 0 -288.5 42t-251 130t-177 225t-67.5 330z" />
<glyph unicode="&#xc8;" horiz-adv-x="1263" d="M86 1534v338h1024v-338h-1024zM135 0v1434h1032v-328h-653v-219h592v-326h-592v-233h666v-328h-1045zM203 1612h63q47 0 71.5 24.5t24.5 65.5q0 37 -24.5 63.5t-71.5 26.5h-63v-180zM233 1642v117h33q31 0 47.5 -16.5t16.5 -40.5q0 -59 -64 -60h-33zM414 1612h127v30h-95 v44h95v32h-95v41h95v33h-127v-180zM592 1612h35v135l61 -80l64 82v-137h32v180h-43l-53 -74l-53 74h-43v-180zM835 1706q0 -39 23 -67.5t70 -28.5q49 0 72.5 28.5t23.5 67.5q0 45 -27.5 70.5t-68.5 25.5q-39 0 -66 -27.5t-27 -68.5zM866 1706q0 25 15.5 45.5t46.5 20.5 q33 0 48 -20.5t15 -45.5q0 -27 -14.5 -46.5t-48.5 -19.5q-31 0 -46.5 21.5t-15.5 44.5z" />
<glyph unicode="&#xc9;" horiz-adv-x="1263" d="M135 0v1434h1032v-328h-653v-219h592v-326h-592v-233h666v-328h-1045zM193 1534v338h1024v-338h-1024zM309 1612h64q47 0 71.5 24.5t24.5 65.5q0 37 -24.5 63.5t-71.5 26.5h-64v-180zM340 1642v117h33q31 0 47 -16.5t16 -40.5q0 -59 -63 -60h-33zM520 1612h127v30h-94v44 h94v32h-94v41h94v33h-127v-180zM698 1612h35v135l62 -80l63 82v-137h33v180h-43l-53 -74l-54 74h-43v-180zM942 1706q0 -39 22.5 -67.5t69.5 -28.5q49 0 73 28.5t24 67.5q0 45 -28 70.5t-69 25.5q-39 0 -65.5 -27.5t-26.5 -68.5zM973 1706q0 25 15.5 45.5t45.5 20.5 q33 0 48.5 -20.5t15.5 -45.5q0 -27 -14.5 -46.5t-49.5 -19.5q-31 0 -46 21.5t-15 44.5z" />
<glyph unicode="&#xca;" horiz-adv-x="1263" d="M135 0v1434h1032v-328h-653v-219h592v-326h-592v-233h666v-328h-1045zM153 1534v338h1024v-338h-1024zM270 1612h63q47 0 72 24.5t25 65.5q0 37 -24.5 63.5t-72.5 26.5h-63v-180zM301 1642v117h32q31 0 47.5 -16.5t16.5 -40.5q0 -59 -64 -60h-32zM481 1612h127v30h-94v44 h94v32h-94v41h94v33h-127v-180zM659 1612h35v135l61 -80l64 82v-137h33v180h-43l-54 -74l-53 74h-43v-180zM903 1706q0 -39 22.5 -67.5t69.5 -28.5q49 0 72.5 28.5t23.5 67.5q0 45 -27.5 70.5t-68.5 25.5q-39 0 -65.5 -27.5t-26.5 -68.5zM934 1706q0 25 15 45.5t46 20.5 q33 0 48 -20.5t15 -45.5q0 -27 -14 -46.5t-49 -19.5q-31 0 -46 21.5t-15 44.5z" />
<glyph unicode="&#xcb;" horiz-adv-x="1263" d="M135 0v1434h1032v-328h-653v-219h592v-326h-592v-233h666v-328h-1045zM168 1534v338h1024v-338h-1024zM285 1612h63q47 0 72 24.5t25 65.5q0 37 -25 63.5t-72 26.5h-63v-180zM316 1642v117h32q31 0 47.5 -16.5t16.5 -40.5q0 -59 -64 -60h-32zM496 1612h127v30h-94v44h94 v32h-94v41h94v33h-127v-180zM674 1612h35v135l61 -80l64 82v-137h32v180h-43l-53 -74l-53 74h-43v-180zM918 1706q0 -39 22.5 -67.5t69.5 -28.5q49 0 72.5 28.5t23.5 67.5q0 45 -27.5 70.5t-68.5 25.5q-39 0 -65.5 -27.5t-26.5 -68.5zM948 1706q0 25 15.5 45.5t46.5 20.5 q33 0 48 -20.5t15 -45.5q0 -27 -14 -46.5t-49 -19.5q-31 0 -46.5 21.5t-15.5 44.5z" />
<glyph unicode="&#xcc;" horiz-adv-x="649" d="M-260 1534v338h1024v-338h-1024zM-143 1612h63q47 0 71.5 24.5t24.5 65.5q0 37 -24.5 63.5t-71.5 26.5h-63v-180zM-113 1642v117h33q31 0 47.5 -16.5t16.5 -40.5q0 -59 -64 -60h-33zM68 1612h127v30h-95v44h95v32h-95v41h95v33h-127v-180zM135 0v1434h379v-1434h-379z M246 1612h35v135l61 -80l64 82v-137h32v180h-43l-53 -74l-53 74h-43v-180zM489 1706q0 -39 23 -67.5t70 -28.5q49 0 72.5 28.5t23.5 67.5q0 45 -27.5 70.5t-68.5 25.5q-39 0 -66 -27.5t-27 -68.5zM520 1706q0 25 15.5 45.5t46.5 20.5q33 0 48 -20.5t15 -45.5 q0 -27 -14.5 -46.5t-48.5 -19.5q-31 0 -46.5 21.5t-15.5 44.5z" />
<glyph unicode="&#xcd;" horiz-adv-x="649" d="M-153 1534v338h1024v-338h-1024zM-37 1612h64q47 0 71.5 24.5t24.5 65.5q0 37 -24.5 63.5t-71.5 26.5h-64v-180zM-6 1642v117h33q31 0 47 -16.5t16 -40.5q0 -59 -63 -60h-33zM135 0v1434h379v-1434h-379zM174 1612h127v30h-94v44h94v32h-94v41h94v33h-127v-180zM352 1612 h35v135l62 -80l63 82v-137h33v180h-43l-53 -74l-54 74h-43v-180zM596 1706q0 -39 22.5 -67.5t69.5 -28.5q49 0 73 28.5t24 67.5q0 45 -28 70.5t-69 25.5q-39 0 -65.5 -27.5t-26.5 -68.5zM627 1706q0 25 15.5 45.5t45.5 20.5q33 0 48.5 -20.5t15.5 -45.5q0 -27 -14.5 -46.5 t-49.5 -19.5q-31 0 -46 21.5t-15 44.5z" />
<glyph unicode="&#xce;" horiz-adv-x="649" d="M-193 1534v338h1024v-338h-1024zM-76 1612h63q47 0 72 24.5t25 65.5q0 37 -24.5 63.5t-72.5 26.5h-63v-180zM-45 1642v117h32q31 0 47.5 -16.5t16.5 -40.5q0 -59 -64 -60h-32zM135 0v1434h379v-1434h-379zM135 1612h127v30h-94v44h94v32h-94v41h94v33h-127v-180z M313 1612h35v135l61 -80l64 82v-137h33v180h-43l-54 -74l-53 74h-43v-180zM557 1706q0 -39 22.5 -67.5t69.5 -28.5q49 0 72.5 28.5t23.5 67.5q0 45 -27.5 70.5t-68.5 25.5q-39 0 -65.5 -27.5t-26.5 -68.5zM588 1706q0 25 15 45.5t46 20.5q33 0 48 -20.5t15 -45.5 q0 -27 -14 -46.5t-49 -19.5q-31 0 -46 21.5t-15 44.5z" />
<glyph unicode="&#xcf;" horiz-adv-x="649" d="M-178 1534v338h1024v-338h-1024zM-61 1612h63q47 0 72 24.5t25 65.5q0 37 -25 63.5t-72 26.5h-63v-180zM-30 1642v117h32q31 0 47.5 -16.5t16.5 -40.5q0 -59 -64 -60h-32zM135 0v1434h379v-1434h-379zM150 1612h127v30h-94v44h94v32h-94v41h94v33h-127v-180zM328 1612h35 v135l61 -80l64 82v-137h32v180h-43l-53 -74l-53 74h-43v-180zM572 1706q0 -39 22.5 -67.5t69.5 -28.5q49 0 72.5 28.5t23.5 67.5q0 45 -27.5 70.5t-68.5 25.5q-39 0 -65.5 -27.5t-26.5 -68.5zM602 1706q0 25 15.5 45.5t46.5 20.5q33 0 48 -20.5t15 -45.5q0 -27 -14 -46.5 t-49 -19.5q-31 0 -46.5 21.5t-15.5 44.5z" />
<glyph unicode="&#xd0;" horiz-adv-x="1556" d="M168 0v1434h571q193 0 334 -53.5t233.5 -148.5t137.5 -227.5t45 -287.5q0 -158 -45 -289t-137.5 -226.5t-233.5 -148.5t-334 -53h-571zM547 328h192q172 0 266.5 93t94.5 296t-94.5 296t-266.5 93h-192v-778z" />
<glyph unicode="&#xd1;" horiz-adv-x="1560" d="M135 0v1434h359l561 -824q-4 51 -6 114.5t-2 123.5v586h378v-1434h-358l-561 821q4 -51 6 -113.5t2 -121.5v-586h-379zM256 1534v338h1024v-338h-1024zM373 1612h63q47 0 72 24.5t25 65.5q0 37 -25 63.5t-72 26.5h-63v-180zM404 1642v117h32q31 0 47.5 -16.5t16.5 -40.5 q0 -59 -64 -60h-32zM584 1612h127v30h-94v44h94v32h-94v41h94v33h-127v-180zM762 1612h35v135l61 -80l64 82v-137h32v180h-43l-53 -74l-53 74h-43v-180zM1006 1706q0 -39 22.5 -67.5t69.5 -28.5q49 0 72.5 28.5t23.5 67.5q0 45 -27.5 70.5t-68.5 25.5q-39 0 -65.5 -27.5 t-26.5 -68.5zM1036 1706q0 25 15.5 45.5t46.5 20.5q33 0 48 -20.5t15 -45.5q0 -27 -14 -46.5t-49 -19.5q-31 0 -46.5 21.5t-15.5 44.5z" />
<glyph unicode="&#xd2;" horiz-adv-x="1662" d="M63 717q0 150 48.5 285t144.5 238t239.5 163.5t335.5 60.5q193 0 336.5 -60.5t239.5 -163.5t144 -238.5t48 -284.5q0 -150 -48 -285t-144 -238.5t-239.5 -164t-336.5 -60.5t-336 60.5t-239 164t-144.5 238.5t-48.5 285zM246 1534v338h1024v-338h-1024zM363 1612h63 q47 0 71.5 24.5t24.5 65.5q0 37 -24.5 63.5t-71.5 26.5h-63v-180zM393 1642v117h33q31 0 47.5 -16.5t16.5 -40.5q0 -59 -64 -60h-33zM453 717q0 -86 24.5 -159t71.5 -127t118.5 -84t163.5 -30t164 30t119 84t71.5 127t24.5 159t-24.5 158.5t-71.5 127t-118.5 84t-164.5 29.5 q-92 0 -163.5 -29.5t-118.5 -84t-71.5 -127t-24.5 -158.5zM574 1612h127v30h-95v44h95v32h-95v41h95v33h-127v-180zM752 1612h35v135l61 -80l64 82v-137h32v180h-43l-53 -74l-53 74h-43v-180zM995 1706q0 -39 23 -67.5t70 -28.5q49 0 72.5 28.5t23.5 67.5q0 45 -27.5 70.5 t-68.5 25.5q-39 0 -66 -27.5t-27 -68.5zM1026 1706q0 25 15.5 45.5t46.5 20.5q33 0 48 -20.5t15 -45.5q0 -27 -14.5 -46.5t-48.5 -19.5q-31 0 -46.5 21.5t-15.5 44.5z" />
<glyph unicode="&#xd3;" horiz-adv-x="1662" d="M63 717q0 150 48.5 285t144.5 238t239.5 163.5t335.5 60.5q193 0 336.5 -60.5t239.5 -163.5t144 -238.5t48 -284.5q0 -150 -48 -285t-144 -238.5t-239.5 -164t-336.5 -60.5t-336 60.5t-239 164t-144.5 238.5t-48.5 285zM353 1534v338h1024v-338h-1024zM453 717 q0 -86 24.5 -159t71.5 -127t118.5 -84t163.5 -30t164 30t119 84t71.5 127t24.5 159t-24.5 158.5t-71.5 127t-118.5 84t-164.5 29.5q-92 0 -163.5 -29.5t-118.5 -84t-71.5 -127t-24.5 -158.5zM469 1612h64q47 0 71.5 24.5t24.5 65.5q0 37 -24.5 63.5t-71.5 26.5h-64v-180z M500 1642v117h33q31 0 47 -16.5t16 -40.5q0 -59 -63 -60h-33zM680 1612h127v30h-94v44h94v32h-94v41h94v33h-127v-180zM858 1612h35v135l62 -80l63 82v-137h33v180h-43l-53 -74l-54 74h-43v-180zM1102 1706q0 -39 22.5 -67.5t69.5 -28.5q49 0 73 28.5t24 67.5q0 45 -28 70.5 t-69 25.5q-39 0 -65.5 -27.5t-26.5 -68.5zM1133 1706q0 25 15.5 45.5t45.5 20.5q33 0 48.5 -20.5t15.5 -45.5q0 -27 -14.5 -46.5t-49.5 -19.5q-31 0 -46 21.5t-15 44.5z" />
<glyph unicode="&#xd4;" horiz-adv-x="1662" d="M63 717q0 150 48.5 285t144.5 238t239.5 163.5t335.5 60.5q193 0 336.5 -60.5t239.5 -163.5t144 -238.5t48 -284.5q0 -150 -48 -285t-144 -238.5t-239.5 -164t-336.5 -60.5t-336 60.5t-239 164t-144.5 238.5t-48.5 285zM313 1534v338h1024v-338h-1024zM430 1612h63 q47 0 72 24.5t25 65.5q0 37 -24.5 63.5t-72.5 26.5h-63v-180zM453 717q0 -86 24.5 -159t71.5 -127t118.5 -84t163.5 -30t164 30t119 84t71.5 127t24.5 159t-24.5 158.5t-71.5 127t-118.5 84t-164.5 29.5q-92 0 -163.5 -29.5t-118.5 -84t-71.5 -127t-24.5 -158.5zM461 1642 v117h32q31 0 47.5 -16.5t16.5 -40.5q0 -59 -64 -60h-32zM641 1612h127v30h-94v44h94v32h-94v41h94v33h-127v-180zM819 1612h35v135l61 -80l64 82v-137h33v180h-43l-54 -74l-53 74h-43v-180zM1063 1706q0 -39 22.5 -67.5t69.5 -28.5q49 0 72.5 28.5t23.5 67.5 q0 45 -27.5 70.5t-68.5 25.5q-39 0 -65.5 -27.5t-26.5 -68.5zM1094 1706q0 25 15 45.5t46 20.5q33 0 48 -20.5t15 -45.5q0 -27 -14 -46.5t-49 -19.5q-31 0 -46 21.5t-15 44.5z" />
<glyph unicode="&#xd5;" horiz-adv-x="1662" d="M63 717q0 150 48.5 285t144.5 238t239.5 163.5t335.5 60.5q193 0 336.5 -60.5t239.5 -163.5t144 -238.5t48 -284.5q0 -150 -48 -285t-144 -238.5t-239.5 -164t-336.5 -60.5t-336 60.5t-239 164t-144.5 238.5t-48.5 285zM307 1534v338h1024v-338h-1024zM424 1612h63 q47 0 72 24.5t25 65.5q0 37 -25 63.5t-72 26.5h-63v-180zM453 717q0 -86 24.5 -159t71.5 -127t118.5 -84t163.5 -30t164 30t119 84t71.5 127t24.5 159t-24.5 158.5t-71.5 127t-118.5 84t-164.5 29.5q-92 0 -163.5 -29.5t-118.5 -84t-71.5 -127t-24.5 -158.5zM455 1642v117 h32q31 0 47.5 -16.5t16.5 -40.5q0 -59 -64 -60h-32zM635 1612h127v30h-94v44h94v32h-94v41h94v33h-127v-180zM813 1612h35v135l61 -80l64 82v-137h32v180h-43l-53 -74l-53 74h-43v-180zM1057 1706q0 -39 22.5 -67.5t69.5 -28.5q49 0 72.5 28.5t23.5 67.5q0 45 -27.5 70.5 t-68.5 25.5q-39 0 -65.5 -27.5t-26.5 -68.5zM1087 1706q0 25 15.5 45.5t46.5 20.5q33 0 48 -20.5t15 -45.5q0 -27 -14 -46.5t-49 -19.5q-31 0 -46.5 21.5t-15.5 44.5z" />
<glyph unicode="&#xd6;" horiz-adv-x="1662" d="M63 717q0 150 48.5 285t144.5 238t239.5 163.5t335.5 60.5q193 0 336.5 -60.5t239.5 -163.5t144 -238.5t48 -284.5q0 -150 -48 -285t-144 -238.5t-239.5 -164t-336.5 -60.5t-336 60.5t-239 164t-144.5 238.5t-48.5 285zM328 1534v338h1024v-338h-1024zM445 1612h63 q47 0 72 24.5t25 65.5q0 37 -25 63.5t-72 26.5h-63v-180zM453 717q0 -86 24.5 -159t71.5 -127t118.5 -84t163.5 -30t164 30t119 84t71.5 127t24.5 159t-24.5 158.5t-71.5 127t-118.5 84t-164.5 29.5q-92 0 -163.5 -29.5t-118.5 -84t-71.5 -127t-24.5 -158.5zM476 1642v117 h32q31 0 47.5 -16.5t16.5 -40.5q0 -59 -64 -60h-32zM656 1612h127v30h-94v44h94v32h-94v41h94v33h-127v-180zM834 1612h35v135l61 -80l64 82v-137h32v180h-43l-53 -74l-53 74h-43v-180zM1078 1706q0 -39 22.5 -67.5t69.5 -28.5q49 0 72.5 28.5t23.5 67.5q0 45 -27.5 70.5 t-68.5 25.5q-39 0 -65.5 -27.5t-26.5 -68.5zM1108 1706q0 25 15.5 45.5t46.5 20.5q33 0 48 -20.5t15 -45.5q0 -27 -14 -46.5t-49 -19.5q-31 0 -46.5 21.5t-15.5 44.5z" />
<glyph unicode="&#xd7;" horiz-adv-x="768" d="M145 0v1434h476v-1434h-476zM252 1176q0 -53 37 -90t96 -37q47 0 88 30.5t41 96.5t-42 95t-89 32q-47 0 -89 -30.5t-42 -96.5zM258 158h248v98q0 66 -39 95.5t-86 27.5q-47 0 -85 -28.5t-38 -94.5v-98zM258 451h248v184h-43v-137h-57v133h-44v-133h-57v137h-47v-184z M258 715h248v45h-178l108 80v8l-108 84h178v45h-248v-53l109 -80l-109 -76v-53zM297 1176q0 45 28.5 63t59.5 18q31 -4 57.5 -20t26.5 -61t-26.5 -63.5t-57.5 -18.5q-37 -2 -63.5 19.5t-24.5 62.5zM303 203v53q-2 41 23.5 57.5t54.5 20.5q29 0 55.5 -17.5t26.5 -60.5v-53 h-160z" />
<glyph unicode="&#xd8;" horiz-adv-x="1662" d="M63 717q0 150 48.5 285t144.5 238t239.5 163.5t335.5 60.5q193 0 336.5 -60.5t239.5 -163.5t144 -238.5t48 -284.5q0 -150 -48 -285t-144 -238.5t-239.5 -164t-336.5 -60.5t-336 60.5t-239 164t-144.5 238.5t-48.5 285zM453 717q0 -86 24.5 -159t71.5 -127t118.5 -84 t163.5 -30t164 30t119 84t71.5 127t24.5 159t-24.5 158.5t-71.5 127t-118.5 84t-164.5 29.5q-92 0 -163.5 -29.5t-118.5 -84t-71.5 -127t-24.5 -158.5z" />
<glyph unicode="&#xd9;" horiz-adv-x="1531" d="M121 547v887h379v-867q0 -145 72.5 -202.5t193.5 -57.5t193.5 57.5t72.5 202.5v867h379v-887q0 -162 -56.5 -272.5t-147.5 -178t-206.5 -97.5t-234.5 -30t-234.5 30t-207 97.5t-147.5 178t-56 272.5zM180 1534v338h1024v-338h-1024zM297 1612h63q47 0 71.5 24.5 t24.5 65.5q0 37 -24.5 63.5t-71.5 26.5h-63v-180zM327 1642v117h33q31 0 47.5 -16.5t16.5 -40.5q0 -59 -64 -60h-33zM508 1612h127v30h-95v44h95v32h-95v41h95v33h-127v-180zM686 1612h35v135l61 -80l64 82v-137h32v180h-43l-53 -74l-53 74h-43v-180zM929 1706 q0 -39 23 -67.5t70 -28.5q49 0 72.5 28.5t23.5 67.5q0 45 -27.5 70.5t-68.5 25.5q-39 0 -66 -27.5t-27 -68.5zM960 1706q0 25 15.5 45.5t46.5 20.5q33 0 48 -20.5t15 -45.5q0 -27 -14.5 -46.5t-48.5 -19.5q-31 0 -46.5 21.5t-15.5 44.5z" />
<glyph unicode="&#xda;" horiz-adv-x="1531" d="M121 547v887h379v-867q0 -145 72.5 -202.5t193.5 -57.5t193.5 57.5t72.5 202.5v867h379v-887q0 -162 -56.5 -272.5t-147.5 -178t-206.5 -97.5t-234.5 -30t-234.5 30t-207 97.5t-147.5 178t-56 272.5zM287 1534v338h1024v-338h-1024zM403 1612h64q47 0 71.5 24.5 t24.5 65.5q0 37 -24.5 63.5t-71.5 26.5h-64v-180zM434 1642v117h33q31 0 47 -16.5t16 -40.5q0 -59 -63 -60h-33zM614 1612h127v30h-94v44h94v32h-94v41h94v33h-127v-180zM792 1612h35v135l62 -80l63 82v-137h33v180h-43l-53 -74l-54 74h-43v-180zM1036 1706 q0 -39 22.5 -67.5t69.5 -28.5q49 0 73 28.5t24 67.5q0 45 -28 70.5t-69 25.5q-39 0 -65.5 -27.5t-26.5 -68.5zM1067 1706q0 25 15.5 45.5t45.5 20.5q33 0 48.5 -20.5t15.5 -45.5q0 -27 -14.5 -46.5t-49.5 -19.5q-31 0 -46 21.5t-15 44.5z" />
<glyph unicode="&#xdb;" horiz-adv-x="1531" d="M121 547v887h379v-867q0 -145 72.5 -202.5t193.5 -57.5t193.5 57.5t72.5 202.5v867h379v-887q0 -162 -56.5 -272.5t-147.5 -178t-206.5 -97.5t-234.5 -30t-234.5 30t-207 97.5t-147.5 178t-56 272.5zM248 1534v338h1024v-338h-1024zM365 1612h63q47 0 72 24.5t25 65.5 q0 37 -24.5 63.5t-72.5 26.5h-63v-180zM396 1642v117h32q31 0 47.5 -16.5t16.5 -40.5q0 -59 -64 -60h-32zM576 1612h127v30h-94v44h94v32h-94v41h94v33h-127v-180zM754 1612h35v135l61 -80l64 82v-137h33v180h-43l-54 -74l-53 74h-43v-180zM998 1706q0 -39 22.5 -67.5 t69.5 -28.5q49 0 72.5 28.5t23.5 67.5q0 45 -27.5 70.5t-68.5 25.5q-39 0 -65.5 -27.5t-26.5 -68.5zM1029 1706q0 25 15 45.5t46 20.5q33 0 48 -20.5t15 -45.5q0 -27 -14 -46.5t-49 -19.5q-31 0 -46 21.5t-15 44.5z" />
<glyph unicode="&#xdc;" horiz-adv-x="1531" d="M121 547v887h379v-867q0 -145 72.5 -202.5t193.5 -57.5t193.5 57.5t72.5 202.5v867h379v-887q0 -162 -56.5 -272.5t-147.5 -178t-206.5 -97.5t-234.5 -30t-234.5 30t-207 97.5t-147.5 178t-56 272.5zM262 1534v338h1024v-338h-1024zM379 1612h63q47 0 72 24.5t25 65.5 q0 37 -25 63.5t-72 26.5h-63v-180zM410 1642v117h32q31 0 47.5 -16.5t16.5 -40.5q0 -59 -64 -60h-32zM590 1612h127v30h-94v44h94v32h-94v41h94v33h-127v-180zM768 1612h35v135l61 -80l64 82v-137h32v180h-43l-53 -74l-53 74h-43v-180zM1012 1706q0 -39 22.5 -67.5 t69.5 -28.5q49 0 72.5 28.5t23.5 67.5q0 45 -27.5 70.5t-68.5 25.5q-39 0 -65.5 -27.5t-26.5 -68.5zM1042 1706q0 25 15.5 45.5t46.5 20.5q33 0 48 -20.5t15 -45.5q0 -27 -14 -46.5t-49 -19.5q-31 0 -46.5 21.5t-15.5 44.5z" />
<glyph unicode="&#xdd;" horiz-adv-x="1490" d="M-2 1434h430l317 -592l318 592h430l-559 -945v-489h-377v489zM263 1534v338h1024v-338h-1024zM379 1612h64q47 0 71.5 24.5t24.5 65.5q0 37 -24.5 63.5t-71.5 26.5h-64v-180zM410 1642v117h33q31 0 47 -16.5t16 -40.5q0 -59 -63 -60h-33zM590 1612h127v30h-94v44h94v32 h-94v41h94v33h-127v-180zM768 1612h35v135l62 -80l63 82v-137h33v180h-43l-53 -74l-54 74h-43v-180zM1012 1706q0 -39 22.5 -67.5t69.5 -28.5q49 0 73 28.5t24 67.5q0 45 -28 70.5t-69 25.5q-39 0 -65.5 -27.5t-26.5 -68.5zM1043 1706q0 25 15.5 45.5t45.5 20.5 q33 0 48.5 -20.5t15.5 -45.5q0 -27 -14.5 -46.5t-49.5 -19.5q-31 0 -46 21.5t-15 44.5z" />
<glyph unicode="&#xde;" horiz-adv-x="1368" d="M135 0v1434h379v-226h188q133 0 247 -23.5t198 -80.5t132 -151.5t48 -235.5t-48 -235.5t-132 -151t-197.5 -81t-247.5 -24.5h-188v-225h-379zM514 553h207q43 0 82 7t69.5 25.5t48 50.5t17.5 81t-17.5 80.5t-48 50t-69.5 26t-82 7.5h-207v-328z" />
<glyph unicode="&#xdf;" horiz-adv-x="1204" d="M104 0v995q0 227 119 347t346 122q121 0 205 -30.5t137.5 -77.5t77 -103.5t23.5 -107.5q0 -66 -27 -118t-57.5 -95t-57 -80t-26.5 -72q0 -33 24.5 -63.5t61.5 -64.5t79 -70.5t78.5 -80.5t61.5 -96.5t25 -115.5q0 -84 -35 -144.5t-92.5 -99.5t-130 -57.5t-148.5 -18.5 q-63 0 -122.5 13.5t-110.5 35.5v267q45 -25 87 -36t76 -11q53 0 85 21.5t32 59.5q0 27 -20.5 54.5t-51 59.5t-67.5 64.5t-67.5 70.5t-51 78t-20.5 85q0 57 22.5 98t50 77t51 76t23.5 99q0 68 -36 92.5t-79 24.5q-53 0 -84.5 -30.5t-31.5 -84.5v-1083h-349z" />
<glyph unicode="&#xe0;" horiz-adv-x="1161" d="M-49 1104v338h1024v-338h-1024zM47 272q0 92 40 154.5t101.5 100.5t137 53.5t147.5 15.5q111 0 213 -23v35q0 53 -50 88t-155 35q-98 0 -185 -23.5t-159 -52.5v293q31 10 74 21.5t94 21.5t105.5 16.5t109.5 6.5q117 0 212 -22.5t163 -76t103.5 -141.5t35.5 -219v-274 q0 -35 20.5 -48.5t47.5 -13.5q20 0 39 6v-215q-35 -14 -81 -22t-95 -8q-164 0 -234 108q-72 -55 -154.5 -87t-187.5 -32q-72 0 -133 20.5t-108.5 59.5t-74 95.5t-26.5 127.5zM68 1182h63q47 0 71.5 24.5t24.5 65.5q0 37 -24.5 63.5t-71.5 26.5h-63v-180zM98 1212v117h33 q31 0 47.5 -16.5t16.5 -40.5q0 -59 -64 -60h-33zM279 1182h127v30h-95v44h95v32h-95v41h95v33h-127v-180zM406 301q0 -39 31.5 -67.5t86.5 -28.5q43 0 82 11t80 40v133q-23 8 -56.5 13.5t-68.5 5.5q-61 0 -108 -24t-47 -83zM457 1182h35v135l61 -80l64 82v-137h32v180h-43 l-53 -74l-53 74h-43v-180zM700 1276q0 -39 23 -67.5t70 -28.5q49 0 72.5 28.5t23.5 67.5q0 45 -27.5 70.5t-68.5 25.5q-39 0 -66 -27.5t-27 -68.5zM731 1276q0 25 15.5 45.5t46.5 20.5q33 0 48 -20.5t15 -45.5q0 -27 -14.5 -46.5t-48.5 -19.5q-31 0 -46.5 21.5t-15.5 44.5z " />
<glyph unicode="&#xe1;" horiz-adv-x="1161" d="M47 272q0 92 40 154.5t101.5 100.5t137 53.5t147.5 15.5q111 0 213 -23v35q0 53 -50 88t-155 35q-98 0 -185 -23.5t-159 -52.5v293q31 10 74 21.5t94 21.5t105.5 16.5t109.5 6.5q117 0 212 -22.5t163 -76t103.5 -141.5t35.5 -219v-274q0 -35 20.5 -48.5t47.5 -13.5 q20 0 39 6v-215q-35 -14 -81 -22t-95 -8q-164 0 -234 108q-72 -55 -154.5 -87t-187.5 -32q-72 0 -133 20.5t-108.5 59.5t-74 95.5t-26.5 127.5zM58 1104v338h1024v-338h-1024zM174 1182h64q47 0 71.5 24.5t24.5 65.5q0 37 -24.5 63.5t-71.5 26.5h-64v-180zM205 1212v117h33 q31 0 47 -16.5t16 -40.5q0 -59 -63 -60h-33zM385 1182h127v30h-94v44h94v32h-94v41h94v33h-127v-180zM406 301q0 -39 31.5 -67.5t86.5 -28.5q43 0 82 11t80 40v133q-23 8 -56.5 13.5t-68.5 5.5q-61 0 -108 -24t-47 -83zM563 1182h35v135l62 -80l63 82v-137h33v180h-43 l-53 -74l-54 74h-43v-180zM807 1276q0 -39 22.5 -67.5t69.5 -28.5q49 0 73 28.5t24 67.5q0 45 -28 70.5t-69 25.5q-39 0 -65.5 -27.5t-26.5 -68.5zM838 1276q0 25 15.5 45.5t45.5 20.5q33 0 48.5 -20.5t15.5 -45.5q0 -27 -14.5 -46.5t-49.5 -19.5q-31 0 -46 21.5t-15 44.5z " />
<glyph unicode="&#xe2;" horiz-adv-x="1161" d="M18 1104v338h1024v-338h-1024zM47 272q0 92 40 154.5t101.5 100.5t137 53.5t147.5 15.5q111 0 213 -23v35q0 53 -50 88t-155 35q-98 0 -185 -23.5t-159 -52.5v293q31 10 74 21.5t94 21.5t105.5 16.5t109.5 6.5q117 0 212 -22.5t163 -76t103.5 -141.5t35.5 -219v-274 q0 -35 20.5 -48.5t47.5 -13.5q20 0 39 6v-215q-35 -14 -81 -22t-95 -8q-164 0 -234 108q-72 -55 -154.5 -87t-187.5 -32q-72 0 -133 20.5t-108.5 59.5t-74 95.5t-26.5 127.5zM135 1182h63q47 0 72 24.5t25 65.5q0 37 -24.5 63.5t-72.5 26.5h-63v-180zM166 1212v117h32 q31 0 47.5 -16.5t16.5 -40.5q0 -59 -64 -60h-32zM346 1182h127v30h-94v44h94v32h-94v41h94v33h-127v-180zM406 301q0 -39 31.5 -67.5t86.5 -28.5q43 0 82 11t80 40v133q-23 8 -56.5 13.5t-68.5 5.5q-61 0 -108 -24t-47 -83zM524 1182h35v135l61 -80l64 82v-137h33v180h-43 l-54 -74l-53 74h-43v-180zM768 1276q0 -39 22.5 -67.5t69.5 -28.5q49 0 72.5 28.5t23.5 67.5q0 45 -27.5 70.5t-68.5 25.5q-39 0 -65.5 -27.5t-26.5 -68.5zM799 1276q0 25 15 45.5t46 20.5q33 0 48 -20.5t15 -45.5q0 -27 -14 -46.5t-49 -19.5q-31 0 -46 21.5t-15 44.5z" />
<glyph unicode="&#xe3;" horiz-adv-x="1161" d="M12 1104v338h1024v-338h-1024zM47 272q0 92 40 154.5t101.5 100.5t137 53.5t147.5 15.5q111 0 213 -23v35q0 53 -50 88t-155 35q-98 0 -185 -23.5t-159 -52.5v293q31 10 74 21.5t94 21.5t105.5 16.5t109.5 6.5q117 0 212 -22.5t163 -76t103.5 -141.5t35.5 -219v-274 q0 -35 20.5 -48.5t47.5 -13.5q20 0 39 6v-215q-35 -14 -81 -22t-95 -8q-164 0 -234 108q-72 -55 -154.5 -87t-187.5 -32q-72 0 -133 20.5t-108.5 59.5t-74 95.5t-26.5 127.5zM129 1182h63q47 0 72 24.5t25 65.5q0 37 -25 63.5t-72 26.5h-63v-180zM160 1212v117h32 q31 0 47.5 -16.5t16.5 -40.5q0 -59 -64 -60h-32zM340 1182h127v30h-94v44h94v32h-94v41h94v33h-127v-180zM406 301q0 -39 31.5 -67.5t86.5 -28.5q43 0 82 11t80 40v133q-23 8 -56.5 13.5t-68.5 5.5q-61 0 -108 -24t-47 -83zM518 1182h35v135l61 -80l64 82v-137h32v180h-43 l-53 -74l-53 74h-43v-180zM762 1276q0 -39 22.5 -67.5t69.5 -28.5q49 0 72.5 28.5t23.5 67.5q0 45 -27.5 70.5t-68.5 25.5q-39 0 -65.5 -27.5t-26.5 -68.5zM792 1276q0 25 15.5 45.5t46.5 20.5q33 0 48 -20.5t15 -45.5q0 -27 -14 -46.5t-49 -19.5q-31 0 -46.5 21.5 t-15.5 44.5z" />
<glyph unicode="&#xe4;" horiz-adv-x="1161" d="M33 1104v338h1024v-338h-1024zM47 272q0 92 40 154.5t101.5 100.5t137 53.5t147.5 15.5q111 0 213 -23v35q0 53 -50 88t-155 35q-98 0 -185 -23.5t-159 -52.5v293q31 10 74 21.5t94 21.5t105.5 16.5t109.5 6.5q117 0 212 -22.5t163 -76t103.5 -141.5t35.5 -219v-274 q0 -35 20.5 -48.5t47.5 -13.5q20 0 39 6v-215q-35 -14 -81 -22t-95 -8q-164 0 -234 108q-72 -55 -154.5 -87t-187.5 -32q-72 0 -133 20.5t-108.5 59.5t-74 95.5t-26.5 127.5zM150 1182h63q47 0 72 24.5t25 65.5q0 37 -25 63.5t-72 26.5h-63v-180zM181 1212v117h32 q31 0 47.5 -16.5t16.5 -40.5q0 -59 -64 -60h-32zM361 1182h127v30h-94v44h94v32h-94v41h94v33h-127v-180zM406 301q0 -39 31.5 -67.5t86.5 -28.5q43 0 82 11t80 40v133q-23 8 -56.5 13.5t-68.5 5.5q-61 0 -108 -24t-47 -83zM539 1182h35v135l61 -80l64 82v-137h32v180h-43 l-53 -74l-53 74h-43v-180zM783 1276q0 -39 22.5 -67.5t69.5 -28.5q49 0 72.5 28.5t23.5 67.5q0 45 -27.5 70.5t-68.5 25.5q-39 0 -65.5 -27.5t-26.5 -68.5zM813 1276q0 25 15.5 45.5t46.5 20.5q33 0 48 -20.5t15 -45.5q0 -27 -14 -46.5t-49 -19.5q-31 0 -46.5 21.5 t-15.5 44.5z" />
<glyph unicode="&#xe5;" horiz-adv-x="1161" d="M47 272q0 92 40 154.5t101.5 100.5t137 53.5t147.5 15.5q111 0 213 -23v35q0 53 -50 88t-155 35q-98 0 -185 -23.5t-159 -52.5v293q31 10 74 21.5t94 21.5t105.5 16.5t109.5 6.5q117 0 212 -22.5t163 -76t103.5 -141.5t35.5 -219v-274q0 -35 20.5 -48.5t47.5 -13.5 q20 0 39 6v-215q-35 -14 -81 -22t-95 -8q-164 0 -234 108q-72 -55 -154.5 -87t-187.5 -32q-72 0 -133 20.5t-108.5 59.5t-74 95.5t-26.5 127.5zM53 1104v338h1024v-338h-1024zM170 1182h63q47 0 71.5 24.5t24.5 65.5q0 37 -24.5 63.5t-71.5 26.5h-63v-180zM200 1212v117h33 q31 0 47.5 -16.5t16.5 -40.5q0 -59 -64 -60h-33zM381 1182h127v30h-95v44h95v32h-95v41h95v33h-127v-180zM406 301q0 -39 31.5 -67.5t86.5 -28.5q43 0 82 11t80 40v133q-23 8 -56.5 13.5t-68.5 5.5q-61 0 -108 -24t-47 -83zM559 1182h35v135l61 -80l64 82v-137h32v180h-43 l-53 -74l-53 74h-43v-180zM802 1276q0 -39 23 -67.5t70 -28.5q49 0 72.5 28.5t23.5 67.5q0 45 -27.5 70.5t-68.5 25.5q-39 0 -66 -27.5t-27 -68.5zM833 1276q0 25 15.5 45.5t46.5 20.5q33 0 48 -20.5t15 -45.5q0 -27 -14.5 -46.5t-48.5 -19.5q-31 0 -46.5 21.5t-15.5 44.5z " />
<glyph unicode="&#xe6;" horiz-adv-x="768" d="M145 0v1434h476v-1434h-476zM252 1176q0 -53 37 -90t96 -37q47 0 88 30.5t41 96.5t-42 95t-89 32q-47 0 -89 -30.5t-42 -96.5zM258 158h248v98q0 66 -39 95.5t-86 27.5q-47 0 -85 -28.5t-38 -94.5v-98zM258 451h248v184h-43v-137h-57v133h-44v-133h-57v137h-47v-184z M258 715h248v45h-178l108 80v8l-108 84h178v45h-248v-53l109 -80l-109 -76v-53zM297 1176q0 45 28.5 63t59.5 18q31 -4 57.5 -20t26.5 -61t-26.5 -63.5t-57.5 -18.5q-37 -2 -63.5 19.5t-24.5 62.5zM303 203v53q-2 41 23.5 57.5t54.5 20.5q29 0 55.5 -17.5t26.5 -60.5v-53 h-160z" />
<glyph unicode="&#xe7;" horiz-adv-x="1003" d="M55 471q0 145 49.5 248.5t129 169t182 96.5t207.5 31q80 0 157.5 -17.5t145.5 -50.5v-297q-51 29 -118 48.5t-132 19.5q-51 0 -98.5 -12.5t-84 -39t-58 -69.5t-21.5 -106q0 -59 21.5 -101.5t56 -70t82 -41t96.5 -13.5q78 0 146.5 18.5t119.5 47.5v-297 q-74 -31 -159 -48.5t-179 -17.5q-102 0 -200.5 30t-174.5 91.5t-122 155.5t-46 225z" />
<glyph unicode="&#xe8;" horiz-adv-x="1122" d="M-16 1083v338h1024v-338h-1024zM55 492q0 143 50.5 243.5t127 161.5t168 89t170.5 28q158 0 262.5 -56.5t162 -145.5t69.5 -200.5t-14 -224.5h-643q14 -41 44.5 -69.5t72.5 -47t92.5 -26.5t103.5 -8q84 0 152.5 12t130.5 35v-258q-70 -25 -159 -40.5t-206 -15.5 q-121 0 -227.5 34t-185.5 100.5t-125 164t-46 224.5zM101 1161h63q47 0 71.5 24.5t24.5 65.5q0 37 -24.5 63.5t-71.5 26.5h-63v-180zM131 1191v117h33q31 0 47.5 -16.5t16.5 -40.5q0 -59 -64 -60h-33zM312 1161h127v30h-95v44h95v32h-95v41h95v33h-127v-180zM403 596h330 q4 18 0 46t-20.5 54.5t-49 46t-83.5 19.5q-72 0 -124.5 -44t-52.5 -122zM490 1161h35v135l61 -80l64 82v-137h32v180h-43l-53 -74l-53 74h-43v-180zM733 1255q0 -39 23 -67.5t70 -28.5q49 0 72.5 28.5t23.5 67.5q0 45 -27.5 70.5t-68.5 25.5q-39 0 -66 -27.5t-27 -68.5z M764 1255q0 25 15.5 45.5t46.5 20.5q33 0 48 -20.5t15 -45.5q0 -27 -14.5 -46.5t-48.5 -19.5q-31 0 -46.5 21.5t-15.5 44.5z" />
<glyph unicode="&#xe9;" horiz-adv-x="1122" d="M55 492q0 143 50.5 243.5t127 161.5t168 89t170.5 28q158 0 262.5 -56.5t162 -145.5t69.5 -200.5t-14 -224.5h-643q14 -41 44.5 -69.5t72.5 -47t92.5 -26.5t103.5 -8q84 0 152.5 12t130.5 35v-258q-70 -25 -159 -40.5t-206 -15.5q-121 0 -227.5 34t-185.5 100.5t-125 164 t-46 224.5zM91 1083v338h1024v-338h-1024zM207 1161h64q47 0 71.5 24.5t24.5 65.5q0 37 -24.5 63.5t-71.5 26.5h-64v-180zM238 1191v117h33q31 0 47 -16.5t16 -40.5q0 -59 -63 -60h-33zM403 596h330q4 18 0 46t-20.5 54.5t-49 46t-83.5 19.5q-72 0 -124.5 -44t-52.5 -122z M418 1161h127v30h-94v44h94v32h-94v41h94v33h-127v-180zM596 1161h35v135l62 -80l63 82v-137h33v180h-43l-53 -74l-54 74h-43v-180zM840 1255q0 -39 22.5 -67.5t69.5 -28.5q49 0 73 28.5t24 67.5q0 45 -28 70.5t-69 25.5q-39 0 -65.5 -27.5t-26.5 -68.5zM871 1255 q0 25 15.5 45.5t45.5 20.5q33 0 48.5 -20.5t15.5 -45.5q0 -27 -14.5 -46.5t-49.5 -19.5q-31 0 -46 21.5t-15 44.5z" />
<glyph unicode="&#xea;" horiz-adv-x="1122" d="M51 1083v338h1024v-338h-1024zM55 492q0 143 50.5 243.5t127 161.5t168 89t170.5 28q158 0 262.5 -56.5t162 -145.5t69.5 -200.5t-14 -224.5h-643q14 -41 44.5 -69.5t72.5 -47t92.5 -26.5t103.5 -8q84 0 152.5 12t130.5 35v-258q-70 -25 -159 -40.5t-206 -15.5 q-121 0 -227.5 34t-185.5 100.5t-125 164t-46 224.5zM168 1161h63q47 0 72 24.5t25 65.5q0 37 -24.5 63.5t-72.5 26.5h-63v-180zM199 1191v117h32q31 0 47.5 -16.5t16.5 -40.5q0 -59 -64 -60h-32zM379 1161h127v30h-94v44h94v32h-94v41h94v33h-127v-180zM403 596h330 q4 18 0 46t-20.5 54.5t-49 46t-83.5 19.5q-72 0 -124.5 -44t-52.5 -122zM557 1161h35v135l61 -80l64 82v-137h33v180h-43l-54 -74l-53 74h-43v-180zM801 1255q0 -39 22.5 -67.5t69.5 -28.5q49 0 72.5 28.5t23.5 67.5q0 45 -27.5 70.5t-68.5 25.5q-39 0 -65.5 -27.5 t-26.5 -68.5zM832 1255q0 25 15 45.5t46 20.5q33 0 48 -20.5t15 -45.5q0 -27 -14 -46.5t-49 -19.5q-31 0 -46 21.5t-15 44.5z" />
<glyph unicode="&#xeb;" horiz-adv-x="1122" d="M55 492q0 143 50.5 243.5t127 161.5t168 89t170.5 28q158 0 262.5 -56.5t162 -145.5t69.5 -200.5t-14 -224.5h-643q14 -41 44.5 -69.5t72.5 -47t92.5 -26.5t103.5 -8q84 0 152.5 12t130.5 35v-258q-70 -25 -159 -40.5t-206 -15.5q-121 0 -227.5 34t-185.5 100.5t-125 164 t-46 224.5zM65 1083v338h1024v-338h-1024zM182 1161h63q47 0 72 24.5t25 65.5q0 37 -25 63.5t-72 26.5h-63v-180zM213 1191v117h32q31 0 47.5 -16.5t16.5 -40.5q0 -59 -64 -60h-32zM393 1161h127v30h-94v44h94v32h-94v41h94v33h-127v-180zM403 596h330q4 18 0 46t-20.5 54.5 t-49 46t-83.5 19.5q-72 0 -124.5 -44t-52.5 -122zM571 1161h35v135l61 -80l64 82v-137h32v180h-43l-53 -74l-53 74h-43v-180zM815 1255q0 -39 22.5 -67.5t69.5 -28.5q49 0 72.5 28.5t23.5 67.5q0 45 -27.5 70.5t-68.5 25.5q-39 0 -65.5 -27.5t-26.5 -68.5zM845 1255 q0 25 15.5 45.5t46.5 20.5q33 0 48 -20.5t15 -45.5q0 -27 -14 -46.5t-49 -19.5q-31 0 -46.5 21.5t-15.5 44.5z" />
<glyph unicode="&#xec;" horiz-adv-x="561" d="M106 0v983h349v-983h-349z" />
<glyph unicode="&#xed;" horiz-adv-x="561" d="M-198 1083v338h1024v-338h-1024zM-82 1161h64q47 0 71.5 24.5t24.5 65.5q0 37 -24.5 63.5t-71.5 26.5h-64v-180zM-51 1191v117h33q31 0 47 -16.5t16 -40.5q0 -59 -63 -60h-33zM106 0v983h349v-983h-349zM129 1161h127v30h-94v44h94v32h-94v41h94v33h-127v-180zM307 1161 h35v135l62 -80l63 82v-137h33v180h-43l-53 -74l-54 74h-43v-180zM551 1255q0 -39 22.5 -67.5t69.5 -28.5q49 0 73 28.5t24 67.5q0 45 -28 70.5t-69 25.5q-39 0 -65.5 -27.5t-26.5 -68.5zM582 1255q0 25 15.5 45.5t45.5 20.5q33 0 48.5 -20.5t15.5 -45.5q0 -27 -14.5 -46.5 t-49.5 -19.5q-31 0 -46 21.5t-15 44.5z" />
<glyph unicode="&#xee;" horiz-adv-x="561" d="M106 0v983h349v-983h-349z" />
<glyph unicode="&#xef;" horiz-adv-x="561" d="M106 0v983h349v-983h-349z" />
<glyph unicode="&#xf0;" horiz-adv-x="1191" d="M59 440q0 106 31 190.5t86 142.5t130 88t163 30q96 0 175 -32t122 -85q0 14 -1 27.5t-3 27.5q-10 80 -54 151t-116 124l-152 -152l-149 152l94 94q-80 20 -178 21v245q100 0 196.5 -15t184.5 -48l141 141l150 -151l-93 -93q154 -111 246 -289t92 -436q0 -170 -42 -284.5 t-113.5 -186t-169 -102.5t-207.5 -31q-111 0 -208 29t-169 87t-114 147.5t-42 207.5zM418 440q0 -27 7 -58.5t26.5 -59t53.5 -47t87 -19.5t87 19.5t53.5 47t26.5 59.5t7 58q0 27 -7 58.5t-26.5 59.5t-53.5 47.5t-87 19.5t-87 -19.5t-53.5 -47.5t-26.5 -59.5t-7 -58.5z" />
<glyph unicode="&#xf1;" horiz-adv-x="1212" d="M61 1083v338h1024v-338h-1024zM104 0v983h308v-113q61 66 138 105t175 39q100 0 175 -32t123 -87t71.5 -129t23.5 -156v-610h-348v563q0 78 -42 116t-107 38q-59 0 -102.5 -29t-65.5 -57v-631h-349zM178 1161h63q47 0 72 24.5t25 65.5q0 37 -25 63.5t-72 26.5h-63v-180z M209 1191v117h32q31 0 47.5 -16.5t16.5 -40.5q0 -59 -64 -60h-32zM389 1161h127v30h-94v44h94v32h-94v41h94v33h-127v-180zM567 1161h35v135l61 -80l64 82v-137h32v180h-43l-53 -74l-53 74h-43v-180zM811 1255q0 -39 22.5 -67.5t69.5 -28.5q49 0 72.5 28.5t23.5 67.5 q0 45 -27.5 70.5t-68.5 25.5q-39 0 -65.5 -27.5t-26.5 -68.5zM841 1255q0 25 15.5 45.5t46.5 20.5q33 0 48 -20.5t15 -45.5q0 -27 -14 -46.5t-49 -19.5q-31 0 -46.5 21.5t-15.5 44.5z" />
<glyph unicode="&#xf2;" horiz-adv-x="1216" d="M25 1063v338h1024v-338h-1024zM55 492q0 131 45 228t121 162.5t176.5 98.5t210.5 33q111 0 211.5 -33t176 -98.5t120.5 -162.5t45 -228t-45 -228.5t-120.5 -163t-176 -98.5t-211.5 -33t-211 33t-176 98.5t-121 163t-45 228.5zM142 1141h63q47 0 71.5 24.5t24.5 65.5 q0 37 -24.5 63.5t-71.5 26.5h-63v-180zM172 1171v117h33q31 0 47.5 -16.5t16.5 -40.5q0 -59 -64 -60h-33zM353 1141h127v30h-95v44h95v32h-95v41h95v33h-127v-180zM414 492q0 -41 10 -80t32.5 -69t60.5 -48.5t91 -18.5t90 18.5t60.5 48.5t34 69t10.5 80t-10.5 79.5t-34 68.5 t-60 48.5t-90.5 18.5q-53 0 -91 -18.5t-60.5 -48.5t-32.5 -69t-10 -79zM531 1141h35v135l61 -80l64 82v-137h32v180h-43l-53 -74l-53 74h-43v-180zM774 1235q0 -39 23 -67.5t70 -28.5q49 0 72.5 28.5t23.5 67.5q0 45 -27.5 70.5t-68.5 25.5q-39 0 -66 -27.5t-27 -68.5z M805 1235q0 25 15.5 45.5t46.5 20.5q33 0 48 -20.5t15 -45.5q0 -27 -14.5 -46.5t-48.5 -19.5q-31 0 -46.5 21.5t-15.5 44.5z" />
<glyph unicode="&#xf3;" horiz-adv-x="1216" d="M55 492q0 131 45 228t121 162.5t176.5 98.5t210.5 33q111 0 211.5 -33t176 -98.5t120.5 -162.5t45 -228t-45 -228.5t-120.5 -163t-176 -98.5t-211.5 -33t-211 33t-176 98.5t-121 163t-45 228.5zM132 1063v338h1024v-338h-1024zM248 1141h64q47 0 71.5 24.5t24.5 65.5 q0 37 -24.5 63.5t-71.5 26.5h-64v-180zM279 1171v117h33q31 0 47 -16.5t16 -40.5q0 -59 -63 -60h-33zM414 492q0 -41 10 -80t32.5 -69t60.5 -48.5t91 -18.5t90 18.5t60.5 48.5t34 69t10.5 80t-10.5 79.5t-34 68.5t-60 48.5t-90.5 18.5q-53 0 -91 -18.5t-60.5 -48.5 t-32.5 -69t-10 -79zM459 1141h127v30h-94v44h94v32h-94v41h94v33h-127v-180zM637 1141h35v135l62 -80l63 82v-137h33v180h-43l-53 -74l-54 74h-43v-180zM881 1235q0 -39 22.5 -67.5t69.5 -28.5q49 0 73 28.5t24 67.5q0 45 -28 70.5t-69 25.5q-39 0 -65.5 -27.5t-26.5 -68.5z M912 1235q0 25 15.5 45.5t45.5 20.5q33 0 48.5 -20.5t15.5 -45.5q0 -27 -14.5 -46.5t-49.5 -19.5q-31 0 -46 21.5t-15 44.5z" />
<glyph unicode="&#xf4;" horiz-adv-x="1216" d="M55 492q0 131 45 228t121 162.5t176.5 98.5t210.5 33q111 0 211.5 -33t176 -98.5t120.5 -162.5t45 -228t-45 -228.5t-120.5 -163t-176 -98.5t-211.5 -33t-211 33t-176 98.5t-121 163t-45 228.5zM92 1063v338h1024v-338h-1024zM209 1141h63q47 0 72 24.5t25 65.5 q0 37 -24.5 63.5t-72.5 26.5h-63v-180zM240 1171v117h32q31 0 47.5 -16.5t16.5 -40.5q0 -59 -64 -60h-32zM414 492q0 -41 10 -80t32.5 -69t60.5 -48.5t91 -18.5t90 18.5t60.5 48.5t34 69t10.5 80t-10.5 79.5t-34 68.5t-60 48.5t-90.5 18.5q-53 0 -91 -18.5t-60.5 -48.5 t-32.5 -69t-10 -79zM420 1141h127v30h-94v44h94v32h-94v41h94v33h-127v-180zM598 1141h35v135l61 -80l64 82v-137h33v180h-43l-54 -74l-53 74h-43v-180zM842 1235q0 -39 22.5 -67.5t69.5 -28.5q49 0 72.5 28.5t23.5 67.5q0 45 -27.5 70.5t-68.5 25.5q-39 0 -65.5 -27.5 t-26.5 -68.5zM873 1235q0 25 15 45.5t46 20.5q33 0 48 -20.5t15 -45.5q0 -27 -14 -46.5t-49 -19.5q-31 0 -46 21.5t-15 44.5z" />
<glyph unicode="&#xf5;" horiz-adv-x="1216" d="M55 492q0 131 45 228t121 162.5t176.5 98.5t210.5 33q111 0 211.5 -33t176 -98.5t120.5 -162.5t45 -228t-45 -228.5t-120.5 -163t-176 -98.5t-211.5 -33t-211 33t-176 98.5t-121 163t-45 228.5zM86 1063v338h1024v-338h-1024zM203 1141h63q47 0 72 24.5t25 65.5 q0 37 -25 63.5t-72 26.5h-63v-180zM234 1171v117h32q31 0 47.5 -16.5t16.5 -40.5q0 -59 -64 -60h-32zM414 492q0 -41 10 -80t32.5 -69t60.5 -48.5t91 -18.5t90 18.5t60.5 48.5t34 69t10.5 80t-10.5 79.5t-34 68.5t-60 48.5t-90.5 18.5q-53 0 -91 -18.5t-60.5 -48.5 t-32.5 -69t-10 -79zM414 1141h127v30h-94v44h94v32h-94v41h94v33h-127v-180zM592 1141h35v135l61 -80l64 82v-137h32v180h-43l-53 -74l-53 74h-43v-180zM836 1235q0 -39 22.5 -67.5t69.5 -28.5q49 0 72.5 28.5t23.5 67.5q0 45 -27.5 70.5t-68.5 25.5q-39 0 -65.5 -27.5 t-26.5 -68.5zM866 1235q0 25 15.5 45.5t46.5 20.5q33 0 48 -20.5t15 -45.5q0 -27 -14 -46.5t-49 -19.5q-31 0 -46.5 21.5t-15.5 44.5z" />
<glyph unicode="&#xf6;" horiz-adv-x="1216" d="M55 492q0 131 45 228t121 162.5t176.5 98.5t210.5 33q111 0 211.5 -33t176 -98.5t120.5 -162.5t45 -228t-45 -228.5t-120.5 -163t-176 -98.5t-211.5 -33t-211 33t-176 98.5t-121 163t-45 228.5zM106 1063v338h1024v-338h-1024zM223 1141h63q47 0 72 24.5t25 65.5 q0 37 -25 63.5t-72 26.5h-63v-180zM254 1171v117h32q31 0 47.5 -16.5t16.5 -40.5q0 -59 -64 -60h-32zM414 492q0 -41 10 -80t32.5 -69t60.5 -48.5t91 -18.5t90 18.5t60.5 48.5t34 69t10.5 80t-10.5 79.5t-34 68.5t-60 48.5t-90.5 18.5q-53 0 -91 -18.5t-60.5 -48.5 t-32.5 -69t-10 -79zM434 1141h127v30h-94v44h94v32h-94v41h94v33h-127v-180zM612 1141h35v135l61 -80l64 82v-137h32v180h-43l-53 -74l-53 74h-43v-180zM856 1235q0 -39 22.5 -67.5t69.5 -28.5q49 0 72.5 28.5t23.5 67.5q0 45 -27.5 70.5t-68.5 25.5q-39 0 -65.5 -27.5 t-26.5 -68.5zM886 1235q0 25 15.5 45.5t46.5 20.5q33 0 48 -20.5t15 -45.5q0 -27 -14 -46.5t-49 -19.5q-31 0 -46.5 21.5t-15.5 44.5z" />
<glyph unicode="&#xf7;" d="M145 0v1434h476v-1434h-476zM252 1176q0 -53 37 -90t96 -37q47 0 88 30.5t41 96.5t-42 95t-89 32q-47 0 -89 -30.5t-42 -96.5zM258 158h248v98q0 66 -39 95.5t-86 27.5q-47 0 -85 -28.5t-38 -94.5v-98zM258 451h248v184h-43v-137h-57v133h-44v-133h-57v137h-47v-184z M258 715h248v45h-178l108 80v8l-108 84h178v45h-248v-53l109 -80l-109 -76v-53zM297 1176q0 45 28.5 63t59.5 18q31 -4 57.5 -20t26.5 -61t-26.5 -63.5t-57.5 -18.5q-37 -2 -63.5 19.5t-24.5 62.5zM303 203v53q-2 41 23.5 57.5t54.5 20.5q29 0 55.5 -17.5t26.5 -60.5v-53 h-160z" />
<glyph unicode="&#xf8;" horiz-adv-x="1216" d="M55 492q0 131 45 228t121 162.5t176.5 98.5t210.5 33q111 0 211.5 -33t176 -98.5t120.5 -162.5t45 -228t-45 -228.5t-120.5 -163t-176 -98.5t-211.5 -33t-211 33t-176 98.5t-121 163t-45 228.5zM414 492q0 -41 10 -80t32.5 -69t60.5 -48.5t91 -18.5t90 18.5t60.5 48.5 t34 69t10.5 80t-10.5 79.5t-34 68.5t-60 48.5t-90.5 18.5q-53 0 -91 -18.5t-60.5 -48.5t-32.5 -69t-10 -79z" />
<glyph unicode="&#xf9;" horiz-adv-x="1212" d="M21 1083v338h1024v-338h-1024zM94 373v610h348v-563q0 -78 42 -116t108 -38q59 0 102 29t66 57v631h348v-983h-307v113q-61 -66 -138 -105t-176 -39q-102 0 -175.5 32t-122 87t-72 128t-23.5 157zM138 1161h63q47 0 71.5 24.5t24.5 65.5q0 37 -24.5 63.5t-71.5 26.5h-63 v-180zM168 1191v117h33q31 0 47.5 -16.5t16.5 -40.5q0 -59 -64 -60h-33zM349 1161h127v30h-95v44h95v32h-95v41h95v33h-127v-180zM527 1161h35v135l61 -80l64 82v-137h32v180h-43l-53 -74l-53 74h-43v-180zM770 1255q0 -39 23 -67.5t70 -28.5q49 0 72.5 28.5t23.5 67.5 q0 45 -27.5 70.5t-68.5 25.5q-39 0 -66 -27.5t-27 -68.5zM801 1255q0 25 15.5 45.5t46.5 20.5q33 0 48 -20.5t15 -45.5q0 -27 -14.5 -46.5t-48.5 -19.5q-31 0 -46.5 21.5t-15.5 44.5z" />
<glyph unicode="&#xfa;" horiz-adv-x="1212" d="M94 373v610h348v-563q0 -78 42 -116t108 -38q59 0 102 29t66 57v631h348v-983h-307v113q-61 -66 -138 -105t-176 -39q-102 0 -175.5 32t-122 87t-72 128t-23.5 157zM127 1083v338h1024v-338h-1024zM243 1161h64q47 0 71.5 24.5t24.5 65.5q0 37 -24.5 63.5t-71.5 26.5h-64 v-180zM274 1191v117h33q31 0 47 -16.5t16 -40.5q0 -59 -63 -60h-33zM454 1161h127v30h-94v44h94v32h-94v41h94v33h-127v-180zM632 1161h35v135l62 -80l63 82v-137h33v180h-43l-53 -74l-54 74h-43v-180zM876 1255q0 -39 22.5 -67.5t69.5 -28.5q49 0 73 28.5t24 67.5 q0 45 -28 70.5t-69 25.5q-39 0 -65.5 -27.5t-26.5 -68.5zM907 1255q0 25 15.5 45.5t45.5 20.5q33 0 48.5 -20.5t15.5 -45.5q0 -27 -14.5 -46.5t-49.5 -19.5q-31 0 -46 21.5t-15 44.5z" />
<glyph unicode="&#xfb;" horiz-adv-x="1212" d="M88 1083v338h1024v-338h-1024zM94 373v610h348v-563q0 -78 42 -116t108 -38q59 0 102 29t66 57v631h348v-983h-307v113q-61 -66 -138 -105t-176 -39q-102 0 -175.5 32t-122 87t-72 128t-23.5 157zM205 1161h63q47 0 72 24.5t25 65.5q0 37 -24.5 63.5t-72.5 26.5h-63v-180 zM236 1191v117h32q31 0 47.5 -16.5t16.5 -40.5q0 -59 -64 -60h-32zM416 1161h127v30h-94v44h94v32h-94v41h94v33h-127v-180zM594 1161h35v135l61 -80l64 82v-137h33v180h-43l-54 -74l-53 74h-43v-180zM838 1255q0 -39 22.5 -67.5t69.5 -28.5q49 0 72.5 28.5t23.5 67.5 q0 45 -27.5 70.5t-68.5 25.5q-39 0 -65.5 -27.5t-26.5 -68.5zM869 1255q0 25 15 45.5t46 20.5q33 0 48 -20.5t15 -45.5q0 -27 -14 -46.5t-49 -19.5q-31 0 -46 21.5t-15 44.5z" />
<glyph unicode="&#xfc;" horiz-adv-x="1212" d="M94 373v610h348v-563q0 -78 42 -116t108 -38q59 0 102 29t66 57v631h348v-983h-307v113q-61 -66 -138 -105t-176 -39q-102 0 -175.5 32t-122 87t-72 128t-23.5 157zM102 1083v338h1024v-338h-1024zM219 1161h63q47 0 72 24.5t25 65.5q0 37 -25 63.5t-72 26.5h-63v-180z M250 1191v117h32q31 0 47.5 -16.5t16.5 -40.5q0 -59 -64 -60h-32zM430 1161h127v30h-94v44h94v32h-94v41h94v33h-127v-180zM608 1161h35v135l61 -80l64 82v-137h32v180h-43l-53 -74l-53 74h-43v-180zM852 1255q0 -39 22.5 -67.5t69.5 -28.5q49 0 72.5 28.5t23.5 67.5 q0 45 -27.5 70.5t-68.5 25.5q-39 0 -65.5 -27.5t-26.5 -68.5zM882 1255q0 25 15.5 45.5t46.5 20.5q33 0 48 -20.5t15 -45.5q0 -27 -14 -46.5t-49 -19.5q-31 0 -46.5 21.5t-15.5 44.5z" />
<glyph unicode="&#xfd;" horiz-adv-x="1181" d="M0 983h369l239 -586l201 586h358l-411 -1085q-43 -111 -94.5 -183.5t-109.5 -114.5t-120.5 -59.5t-126.5 -17.5q-47 0 -92 8t-88 18v287q70 -16 133 -16q66 0 118 38t87 117zM97 1083v338h1024v-338h-1024zM213 1161h64q47 0 71.5 24.5t24.5 65.5q0 37 -24.5 63.5 t-71.5 26.5h-64v-180zM244 1191v117h33q31 0 47 -16.5t16 -40.5q0 -59 -63 -60h-33zM424 1161h127v30h-94v44h94v32h-94v41h94v33h-127v-180zM602 1161h35v135l62 -80l63 82v-137h33v180h-43l-53 -74l-54 74h-43v-180zM846 1255q0 -39 22.5 -67.5t69.5 -28.5q49 0 73 28.5 t24 67.5q0 45 -28 70.5t-69 25.5q-39 0 -65.5 -27.5t-26.5 -68.5zM877 1255q0 25 15.5 45.5t45.5 20.5q33 0 48.5 -20.5t15.5 -45.5q0 -27 -14.5 -46.5t-49.5 -19.5q-31 0 -46 21.5t-15 44.5z" />
<glyph unicode="&#xfe;" horiz-adv-x="1275" d="M104 -451v1885h349v-553q53 59 128.5 96t174.5 37q123 0 211 -47t144 -123t83 -168t27 -184q0 -98 -29 -192.5t-87 -168.5t-145.5 -118t-203.5 -44q-102 0 -179 38t-124 85v-543h-349zM453 389q31 -51 83 -86t117 -37q51 -2 90 17.5t66 51.5t40 73t13 84t-12 84.5 t-37 75.5t-64.5 54.5t-95.5 20.5q-72 0 -125 -39t-75 -94v-205z" />
<glyph unicode="&#xff;" horiz-adv-x="1181" d="M0 983h369l239 -586l201 586h358l-411 -1085q-43 -111 -94.5 -183.5t-109.5 -114.5t-120.5 -59.5t-126.5 -17.5q-47 0 -92 8t-88 18v287q70 -16 133 -16q66 0 118 38t87 117zM72 1083v338h1024v-338h-1024zM189 1161h63q47 0 72 24.5t25 65.5q0 37 -25 63.5t-72 26.5h-63 v-180zM220 1191v117h32q31 0 47.5 -16.5t16.5 -40.5q0 -59 -64 -60h-32zM400 1161h127v30h-94v44h94v32h-94v41h94v33h-127v-180zM578 1161h35v135l61 -80l64 82v-137h32v180h-43l-53 -74l-53 74h-43v-180zM822 1255q0 -39 22.5 -67.5t69.5 -28.5q49 0 72.5 28.5t23.5 67.5 q0 45 -27.5 70.5t-68.5 25.5q-39 0 -65.5 -27.5t-26.5 -68.5zM852 1255q0 25 15.5 45.5t46.5 20.5q33 0 48 -20.5t15 -45.5q0 -27 -14 -46.5t-49 -19.5q-31 0 -46.5 21.5t-15.5 44.5z" />
<glyph unicode="&#x152;" d="M145 0v1434h476v-1434h-476zM252 1176q0 -53 37 -90t96 -37q47 0 88 30.5t41 96.5t-42 95t-89 32q-47 0 -89 -30.5t-42 -96.5zM258 158h248v98q0 66 -39 95.5t-86 27.5q-47 0 -85 -28.5t-38 -94.5v-98zM258 451h248v184h-43v-137h-57v133h-44v-133h-57v137h-47v-184z M258 715h248v45h-178l108 80v8l-108 84h178v45h-248v-53l109 -80l-109 -76v-53zM297 1176q0 45 28.5 63t59.5 18q31 -4 57.5 -20t26.5 -61t-26.5 -63.5t-57.5 -18.5q-37 -2 -63.5 19.5t-24.5 62.5zM303 203v53q-2 41 23.5 57.5t54.5 20.5q29 0 55.5 -17.5t26.5 -60.5v-53 h-160z" />
<glyph unicode="&#x153;" d="M145 0v1434h476v-1434h-476zM252 1176q0 -53 37 -90t96 -37q47 0 88 30.5t41 96.5t-42 95t-89 32q-47 0 -89 -30.5t-42 -96.5zM258 158h248v98q0 66 -39 95.5t-86 27.5q-47 0 -85 -28.5t-38 -94.5v-98zM258 451h248v184h-43v-137h-57v133h-44v-133h-57v137h-47v-184z M258 715h248v45h-178l108 80v8l-108 84h178v45h-248v-53l109 -80l-109 -76v-53zM297 1176q0 45 28.5 63t59.5 18q31 -4 57.5 -20t26.5 -61t-26.5 -63.5t-57.5 -18.5q-37 -2 -63.5 19.5t-24.5 62.5zM303 203v53q-2 41 23.5 57.5t54.5 20.5q29 0 55.5 -17.5t26.5 -60.5v-53 h-160z" />
<glyph unicode="&#x178;" horiz-adv-x="1490" d="M-2 1434h430l317 -592l318 592h430l-559 -945v-489h-377v489zM237 1534v338h1024v-338h-1024zM354 1612h63q47 0 72 24.5t25 65.5q0 37 -25 63.5t-72 26.5h-63v-180zM385 1642v117h32q31 0 47.5 -16.5t16.5 -40.5q0 -59 -64 -60h-32zM565 1612h127v30h-94v44h94v32h-94 v41h94v33h-127v-180zM743 1612h35v135l61 -80l64 82v-137h32v180h-43l-53 -74l-53 74h-43v-180zM987 1706q0 -39 22.5 -67.5t69.5 -28.5q49 0 72.5 28.5t23.5 67.5q0 45 -27.5 70.5t-68.5 25.5q-39 0 -65.5 -27.5t-26.5 -68.5zM1017 1706q0 25 15.5 45.5t46.5 20.5 q33 0 48 -20.5t15 -45.5q0 -27 -14 -46.5t-49 -19.5q-31 0 -46.5 21.5t-15.5 44.5z" />
<glyph unicode="&#x2c6;" horiz-adv-x="798" d="M-119 1534v338h1024v-338h-1024zM-2 1612h63q47 0 72 24.5t25 65.5q0 37 -24.5 63.5t-72.5 26.5h-63v-180zM29 1642v117h32q31 0 47.5 -16.5t16.5 -40.5q0 -59 -64 -60h-32zM209 1612h127v30h-94v44h94v32h-94v41h94v33h-127v-180zM387 1612h35v135l61 -80l64 82v-137h33 v180h-43l-54 -74l-53 74h-43v-180zM631 1706q0 -39 22.5 -67.5t69.5 -28.5q49 0 72.5 28.5t23.5 67.5q0 45 -27.5 70.5t-68.5 25.5q-39 0 -65.5 -27.5t-26.5 -68.5zM662 1706q0 25 15 45.5t46 20.5q33 0 48 -20.5t15 -45.5q0 -27 -14 -46.5t-49 -19.5q-31 0 -46 21.5 t-15 44.5z" />
<glyph unicode="&#x2dc;" horiz-adv-x="874" d="M-82 1534v338h1024v-338h-1024zM35 1612h63q47 0 72 24.5t25 65.5q0 37 -25 63.5t-72 26.5h-63v-180zM66 1642v117h32q31 0 47.5 -16.5t16.5 -40.5q0 -59 -64 -60h-32zM246 1612h127v30h-94v44h94v32h-94v41h94v33h-127v-180zM424 1612h35v135l61 -80l64 82v-137h32v180 h-43l-53 -74l-53 74h-43v-180zM668 1706q0 -39 22.5 -67.5t69.5 -28.5q49 0 72.5 28.5t23.5 67.5q0 45 -27.5 70.5t-68.5 25.5q-39 0 -65.5 -27.5t-26.5 -68.5zM698 1706q0 25 15.5 45.5t46.5 20.5q33 0 48 -20.5t15 -45.5q0 -27 -14 -46.5t-49 -19.5q-31 0 -46.5 21.5 t-15.5 44.5z" />
<glyph unicode="&#x2000;" horiz-adv-x="936" />
<glyph unicode="&#x2001;" horiz-adv-x="1872" />
<glyph unicode="&#x2002;" horiz-adv-x="936" />
<glyph unicode="&#x2003;" horiz-adv-x="1872" />
<glyph unicode="&#x2004;" horiz-adv-x="624" />
<glyph unicode="&#x2005;" horiz-adv-x="468" />
<glyph unicode="&#x2006;" horiz-adv-x="312" />
<glyph unicode="&#x2007;" horiz-adv-x="312" />
<glyph unicode="&#x2008;" horiz-adv-x="234" />
<glyph unicode="&#x2009;" horiz-adv-x="374" />
<glyph unicode="&#x200a;" horiz-adv-x="104" />
<glyph unicode="&#x2010;" horiz-adv-x="991" d="M106 350v287h779v-287h-779z" />
<glyph unicode="&#x2011;" horiz-adv-x="991" d="M106 350v287h779v-287h-779z" />
<glyph unicode="&#x2012;" horiz-adv-x="991" d="M106 350v287h779v-287h-779z" />
<glyph unicode="&#x2013;" d="M145 0v1434h476v-1434h-476zM252 1176q0 -53 37 -90t96 -37q47 0 88 30.5t41 96.5t-42 95t-89 32q-47 0 -89 -30.5t-42 -96.5zM258 158h248v98q0 66 -39 95.5t-86 27.5q-47 0 -85 -28.5t-38 -94.5v-98zM258 451h248v184h-43v-137h-57v133h-44v-133h-57v137h-47v-184z M258 715h248v45h-178l108 80v8l-108 84h178v45h-248v-53l109 -80l-109 -76v-53zM297 1176q0 45 28.5 63t59.5 18q31 -4 57.5 -20t26.5 -61t-26.5 -63.5t-57.5 -18.5q-37 -2 -63.5 19.5t-24.5 62.5zM303 203v53q-2 41 23.5 57.5t54.5 20.5q29 0 55.5 -17.5t26.5 -60.5v-53 h-160z" />
<glyph unicode="&#x2014;" d="M145 0v1434h476v-1434h-476zM252 1176q0 -53 37 -90t96 -37q47 0 88 30.5t41 96.5t-42 95t-89 32q-47 0 -89 -30.5t-42 -96.5zM258 158h248v98q0 66 -39 95.5t-86 27.5q-47 0 -85 -28.5t-38 -94.5v-98zM258 451h248v184h-43v-137h-57v133h-44v-133h-57v137h-47v-184z M258 715h248v45h-178l108 80v8l-108 84h178v45h-248v-53l109 -80l-109 -76v-53zM297 1176q0 45 28.5 63t59.5 18q31 -4 57.5 -20t26.5 -61t-26.5 -63.5t-57.5 -18.5q-37 -2 -63.5 19.5t-24.5 62.5zM303 203v53q-2 41 23.5 57.5t54.5 20.5q29 0 55.5 -17.5t26.5 -60.5v-53 h-160z" />
<glyph unicode="&#x2018;" d="M145 0v1434h476v-1434h-476zM252 1176q0 -53 37 -90t96 -37q47 0 88 30.5t41 96.5t-42 95t-89 32q-47 0 -89 -30.5t-42 -96.5zM258 158h248v98q0 66 -39 95.5t-86 27.5q-47 0 -85 -28.5t-38 -94.5v-98zM258 451h248v184h-43v-137h-57v133h-44v-133h-57v137h-47v-184z M258 715h248v45h-178l108 80v8l-108 84h178v45h-248v-53l109 -80l-109 -76v-53zM297 1176q0 45 28.5 63t59.5 18q31 -4 57.5 -20t26.5 -61t-26.5 -63.5t-57.5 -18.5q-37 -2 -63.5 19.5t-24.5 62.5zM303 203v53q-2 41 23.5 57.5t54.5 20.5q29 0 55.5 -17.5t26.5 -60.5v-53 h-160z" />
<glyph unicode="&#x2019;" d="M145 0v1434h476v-1434h-476zM252 1176q0 -53 37 -90t96 -37q47 0 88 30.5t41 96.5t-42 95t-89 32q-47 0 -89 -30.5t-42 -96.5zM258 158h248v98q0 66 -39 95.5t-86 27.5q-47 0 -85 -28.5t-38 -94.5v-98zM258 451h248v184h-43v-137h-57v133h-44v-133h-57v137h-47v-184z M258 715h248v45h-178l108 80v8l-108 84h178v45h-248v-53l109 -80l-109 -76v-53zM297 1176q0 45 28.5 63t59.5 18q31 -4 57.5 -20t26.5 -61t-26.5 -63.5t-57.5 -18.5q-37 -2 -63.5 19.5t-24.5 62.5zM303 203v53q-2 41 23.5 57.5t54.5 20.5q29 0 55.5 -17.5t26.5 -60.5v-53 h-160z" />
<glyph unicode="&#x201a;" d="M145 0v1434h476v-1434h-476zM252 1176q0 -53 37 -90t96 -37q47 0 88 30.5t41 96.5t-42 95t-89 32q-47 0 -89 -30.5t-42 -96.5zM258 158h248v98q0 66 -39 95.5t-86 27.5q-47 0 -85 -28.5t-38 -94.5v-98zM258 451h248v184h-43v-137h-57v133h-44v-133h-57v137h-47v-184z M258 715h248v45h-178l108 80v8l-108 84h178v45h-248v-53l109 -80l-109 -76v-53zM297 1176q0 45 28.5 63t59.5 18q31 -4 57.5 -20t26.5 -61t-26.5 -63.5t-57.5 -18.5q-37 -2 -63.5 19.5t-24.5 62.5zM303 203v53q-2 41 23.5 57.5t54.5 20.5q29 0 55.5 -17.5t26.5 -60.5v-53 h-160z" />
<glyph unicode="&#x201c;" d="M145 0v1434h476v-1434h-476zM252 1176q0 -53 37 -90t96 -37q47 0 88 30.5t41 96.5t-42 95t-89 32q-47 0 -89 -30.5t-42 -96.5zM258 158h248v98q0 66 -39 95.5t-86 27.5q-47 0 -85 -28.5t-38 -94.5v-98zM258 451h248v184h-43v-137h-57v133h-44v-133h-57v137h-47v-184z M258 715h248v45h-178l108 80v8l-108 84h178v45h-248v-53l109 -80l-109 -76v-53zM297 1176q0 45 28.5 63t59.5 18q31 -4 57.5 -20t26.5 -61t-26.5 -63.5t-57.5 -18.5q-37 -2 -63.5 19.5t-24.5 62.5zM303 203v53q-2 41 23.5 57.5t54.5 20.5q29 0 55.5 -17.5t26.5 -60.5v-53 h-160z" />
<glyph unicode="&#x201d;" d="M145 0v1434h476v-1434h-476zM252 1176q0 -53 37 -90t96 -37q47 0 88 30.5t41 96.5t-42 95t-89 32q-47 0 -89 -30.5t-42 -96.5zM258 158h248v98q0 66 -39 95.5t-86 27.5q-47 0 -85 -28.5t-38 -94.5v-98zM258 451h248v184h-43v-137h-57v133h-44v-133h-57v137h-47v-184z M258 715h248v45h-178l108 80v8l-108 84h178v45h-248v-53l109 -80l-109 -76v-53zM297 1176q0 45 28.5 63t59.5 18q31 -4 57.5 -20t26.5 -61t-26.5 -63.5t-57.5 -18.5q-37 -2 -63.5 19.5t-24.5 62.5zM303 203v53q-2 41 23.5 57.5t54.5 20.5q29 0 55.5 -17.5t26.5 -60.5v-53 h-160z" />
<glyph unicode="&#x201e;" d="M145 0v1434h476v-1434h-476zM252 1176q0 -53 37 -90t96 -37q47 0 88 30.5t41 96.5t-42 95t-89 32q-47 0 -89 -30.5t-42 -96.5zM258 158h248v98q0 66 -39 95.5t-86 27.5q-47 0 -85 -28.5t-38 -94.5v-98zM258 451h248v184h-43v-137h-57v133h-44v-133h-57v137h-47v-184z M258 715h248v45h-178l108 80v8l-108 84h178v45h-248v-53l109 -80l-109 -76v-53zM297 1176q0 45 28.5 63t59.5 18q31 -4 57.5 -20t26.5 -61t-26.5 -63.5t-57.5 -18.5q-37 -2 -63.5 19.5t-24.5 62.5zM303 203v53q-2 41 23.5 57.5t54.5 20.5q29 0 55.5 -17.5t26.5 -60.5v-53 h-160z" />
<glyph unicode="&#x2022;" d="M145 0v1434h476v-1434h-476zM252 1176q0 -53 37 -90t96 -37q47 0 88 30.5t41 96.5t-42 95t-89 32q-47 0 -89 -30.5t-42 -96.5zM258 158h248v98q0 66 -39 95.5t-86 27.5q-47 0 -85 -28.5t-38 -94.5v-98zM258 451h248v184h-43v-137h-57v133h-44v-133h-57v137h-47v-184z M258 715h248v45h-178l108 80v8l-108 84h178v45h-248v-53l109 -80l-109 -76v-53zM297 1176q0 45 28.5 63t59.5 18q31 -4 57.5 -20t26.5 -61t-26.5 -63.5t-57.5 -18.5q-37 -2 -63.5 19.5t-24.5 62.5zM303 203v53q-2 41 23.5 57.5t54.5 20.5q29 0 55.5 -17.5t26.5 -60.5v-53 h-160z" />
<glyph unicode="&#x2026;" d="M145 0v1434h476v-1434h-476zM252 1176q0 -53 37 -90t96 -37q47 0 88 30.5t41 96.5t-42 95t-89 32q-47 0 -89 -30.5t-42 -96.5zM258 158h248v98q0 66 -39 95.5t-86 27.5q-47 0 -85 -28.5t-38 -94.5v-98zM258 451h248v184h-43v-137h-57v133h-44v-133h-57v137h-47v-184z M258 715h248v45h-178l108 80v8l-108 84h178v45h-248v-53l109 -80l-109 -76v-53zM297 1176q0 45 28.5 63t59.5 18q31 -4 57.5 -20t26.5 -61t-26.5 -63.5t-57.5 -18.5q-37 -2 -63.5 19.5t-24.5 62.5zM303 203v53q-2 41 23.5 57.5t54.5 20.5q29 0 55.5 -17.5t26.5 -60.5v-53 h-160z" />
<glyph unicode="&#x202f;" horiz-adv-x="374" />
<glyph unicode="&#x2039;" d="M145 0v1434h476v-1434h-476zM252 1176q0 -53 37 -90t96 -37q47 0 88 30.5t41 96.5t-42 95t-89 32q-47 0 -89 -30.5t-42 -96.5zM258 158h248v98q0 66 -39 95.5t-86 27.5q-47 0 -85 -28.5t-38 -94.5v-98zM258 451h248v184h-43v-137h-57v133h-44v-133h-57v137h-47v-184z M258 715h248v45h-178l108 80v8l-108 84h178v45h-248v-53l109 -80l-109 -76v-53zM297 1176q0 45 28.5 63t59.5 18q31 -4 57.5 -20t26.5 -61t-26.5 -63.5t-57.5 -18.5q-37 -2 -63.5 19.5t-24.5 62.5zM303 203v53q-2 41 23.5 57.5t54.5 20.5q29 0 55.5 -17.5t26.5 -60.5v-53 h-160z" />
<glyph unicode="&#x203a;" d="M145 0v1434h476v-1434h-476zM252 1176q0 -53 37 -90t96 -37q47 0 88 30.5t41 96.5t-42 95t-89 32q-47 0 -89 -30.5t-42 -96.5zM258 158h248v98q0 66 -39 95.5t-86 27.5q-47 0 -85 -28.5t-38 -94.5v-98zM258 451h248v184h-43v-137h-57v133h-44v-133h-57v137h-47v-184z M258 715h248v45h-178l108 80v8l-108 84h178v45h-248v-53l109 -80l-109 -76v-53zM297 1176q0 45 28.5 63t59.5 18q31 -4 57.5 -20t26.5 -61t-26.5 -63.5t-57.5 -18.5q-37 -2 -63.5 19.5t-24.5 62.5zM303 203v53q-2 41 23.5 57.5t54.5 20.5q29 0 55.5 -17.5t26.5 -60.5v-53 h-160z" />
<glyph unicode="&#x205f;" horiz-adv-x="468" />
<glyph unicode="&#x20ac;" d="M145 0v1434h476v-1434h-476zM252 1176q0 -53 37 -90t96 -37q47 0 88 30.5t41 96.5t-42 95t-89 32q-47 0 -89 -30.5t-42 -96.5zM258 158h248v98q0 66 -39 95.5t-86 27.5q-47 0 -85 -28.5t-38 -94.5v-98zM258 451h248v184h-43v-137h-57v133h-44v-133h-57v137h-47v-184z M258 715h248v45h-178l108 80v8l-108 84h178v45h-248v-53l109 -80l-109 -76v-53zM297 1176q0 45 28.5 63t59.5 18q31 -4 57.5 -20t26.5 -61t-26.5 -63.5t-57.5 -18.5q-37 -2 -63.5 19.5t-24.5 62.5zM303 203v53q-2 41 23.5 57.5t54.5 20.5q29 0 55.5 -17.5t26.5 -60.5v-53 h-160z" />
<glyph unicode="&#x2122;" d="M145 0v1434h476v-1434h-476zM252 1176q0 -53 37 -90t96 -37q47 0 88 30.5t41 96.5t-42 95t-89 32q-47 0 -89 -30.5t-42 -96.5zM258 158h248v98q0 66 -39 95.5t-86 27.5q-47 0 -85 -28.5t-38 -94.5v-98zM258 451h248v184h-43v-137h-57v133h-44v-133h-57v137h-47v-184z M258 715h248v45h-178l108 80v8l-108 84h178v45h-248v-53l109 -80l-109 -76v-53zM297 1176q0 45 28.5 63t59.5 18q31 -4 57.5 -20t26.5 -61t-26.5 -63.5t-57.5 -18.5q-37 -2 -63.5 19.5t-24.5 62.5zM303 203v53q-2 41 23.5 57.5t54.5 20.5q29 0 55.5 -17.5t26.5 -60.5v-53 h-160z" />
<glyph unicode="&#x25fc;" horiz-adv-x="983" d="M0 0v983h983v-983h-983z" />
<glyph unicode="&#xfb01;" horiz-adv-x="1302" d="M49 696v287h162v31q0 119 38 204t105.5 140t159.5 80.5t201 25.5q170 0 364 -59v-285q-70 29 -144.5 43.5t-143.5 14.5q-49 0 -91.5 -9.5t-73 -30t-49 -51t-18.5 -75.5v-29h637v-983h-348v696h-289v-696h-348v696h-162z" />
<glyph unicode="&#xfb02;" horiz-adv-x="1363" d="M49 696v287h162v51q0 111 34 192t92 134t134 78.5t162 25.5q102 0 179 -17t149 -46l296 45v-1446h-348v1141q-41 16 -86 26.5t-86 10.5q-74 0 -126 -35t-52 -117v-43h242v-287h-242v-696h-348v696h-162z" />
<glyph unicode="&#xfb03;" horiz-adv-x="2029" d="M49 696v287h162v33q0 117 37 197.5t99.5 132t143 75t171.5 23.5q78 0 167 -15.5t187 -52.5q68 66 167 97.5t218 31.5q170 0 364 -59v-285q-70 29 -144.5 43.5t-143.5 14.5q-49 0 -91.5 -9.5t-73 -30t-49 -51t-18.5 -75.5v-70h678v-983h-348v696h-330v-696h-348v696h-338 v-696h-348v696h-162zM559 983h338v72q0 20 1 39.5t3 38.5q-80 35 -168 34q-80 0 -127 -38.5t-47 -114.5v-31z" />
<glyph unicode="&#xfb04;" horiz-adv-x="2050" d="M49 696v287h162v33q0 117 37 197.5t99.5 132t143 75t171.5 23.5q78 0 167 -15.5t187 -54.5q59 57 137 84t166 27q102 0 179 -17.5t149 -46.5l297 45v-1466h-349v1161q-41 16 -86 26.5t-86 10.5q-74 0 -126 -35t-52 -116v-64h242v-287h-242v-696h-348v696h-338v-696h-348 v696h-162zM559 983h338v72q0 20 1 39.5t3 38.5q-80 35 -168 34q-80 0 -127 -38.5t-47 -114.5v-31z" />
</font>
</defs>
</svg>
